<?xml version="1.0" encoding="UTF-8"?>
<svg id="_レイヤー_2" data-name="レイヤー 2" xmlns="http://www.w3.org/2000/svg" xmlns:xlink="http://www.w3.org/1999/xlink" viewBox="0 0 15.32 8.9">
  <defs>
    <style>
      .cls-1 {
        fill: none;
      }

      .cls-2 {
        fill: #e81b2c;
      }

      .cls-3 {
        fill: #fff;
      }

      .cls-4 {
        clip-path: url(#clippath);
      }
    </style>
    <clipPath id="clippath">
      <path class="cls-1" d="M1.08-.79v11.57h15.27V-.79H1.08ZM11.37,7.97c-.14.25-.36.45-.57.57-.16.09-.32.15-.48.2-.03,0-.06.01-.09.01-.04,0-.12,0-.19,0h0c-.32,0-.6-.06-.78-.1l-.15-.05-.33-.29c-.17.17-.35.32-.52.46-.38-.11-.73-.29-1.04-.5-.33-.23-.62-.49-.88-.78-.03-.04-.06-.08-.09-.11-.13.06-.25.12-.39.17-.1.04-.21.07-.31.11h0c-.08.03-.16.06-.24.09-.2.06-.41.11-.66.11h-.09s-.07,0-.1,0c-.06,0-.13-.02-.2-.03-.06-.01-.11-.03-.16-.04-.05-.02-.1-.03-.15-.05-.09-.04-.19-.07-.28-.11l-.26-.12c-.34-.16-.66-.34-.98-.52-.11-.06-.21-.13-.32-.2,0-.04,0-.07.01-.11.02-.15.03-.22.05-.3l.04-.18.08-.24c.04-.09.07-.16.1-.22.19.12.38.24.57.35.3.17.6.34.9.48l.22.1.22.08s.07.02.1.03c.03,0,.07.02.1.03.02,0,.04,0,.06,0h.03s.04,0,.04,0c.11,0,.24-.03.39-.07.04-.01.08-.03.12-.04l-.02.09.4.53.51-.71c.07-.04.15-.07.22-.12.12-.08.24-.18.37-.31l-.02-.11c.24-.11.48-.22.74-.32h.1s.7.27.7.27c.11.1.2.2.31.27.09.06.18.11.27.15h0s0,0,0,0c-.29.04-.6.13-.91.25-.17.06-.35.15-.53.23.18.18.36.34.56.47.25.17.52.31.79.38l.06.02h.04s.07.02.1.03l.1.02s.07,0,.1,0h.08s.02,0,.02,0c.04,0,.08,0,.12,0,.08,0,.16,0,.24-.02.16-.01.31-.04.45-.07.14-.04.26-.08.36-.13.09-.05.15-.11.18-.17.03-.06.05-.14.05-.25,0-.03,0-.06,0-.09v-.1s-.02-.07-.03-.1c0-.03-.01-.06-.02-.09-.03-.11-.07-.17-.12-.21-.05-.04-.13-.09-.25-.12-.12-.03-.27-.05-.43-.06-.07,0-.14,0-.21,0l.66-.76.33.95-.23-.98.29-.1c.18.06.37.15.54.3.05.05.1.1.15.16.04.06.08.11.12.17.03.06.06.12.09.18.03.06.04.12.06.18.02.06.03.11.04.17.01.06.02.11.03.16l.02.16v.18c.01.24-.03.52-.17.77Z"/>
    </clipPath>
  </defs>
  <g id="img">
    <g>
      <g>
        <g>
          <path class="cls-2" d="M14.35,6.14c-.33.15-.66.3-.99.45l-.05-.11c.33-.15.65-.29.98-.44l.05.11Z"/>
          <path class="cls-3" d="M14.3,6.04c-.33.15-.65.3-.98.44l-.05-.11c.33-.15.65-.29.98-.44l.05.11Z"/>
          <path class="cls-2" d="M14.25,5.93c-.33.15-.65.3-.98.44l-.05-.11c.33-.14.65-.29.98-.44l.05.11Z"/>
          <path class="cls-3" d="M14.2,5.82c-.33.15-.65.3-.98.44l-.05-.11c.33-.14.65-.29.98-.44l.05.11Z"/>
          <path class="cls-2" d="M14.15,5.72c-.32.15-.65.3-.98.44l-.05-.11c.33-.14.65-.29.97-.44l.05.11Z"/>
          <path class="cls-3" d="M14.1,5.61c-.32.15-.65.3-.97.44l-.05-.11c.33-.14.65-.29.97-.44l.05.11Z"/>
          <path class="cls-2" d="M14.05,5.51c-.32.15-.65.3-.97.44l-.05-.11c.32-.14.65-.29.97-.44l.05.11Z"/>
          <path class="cls-3" d="M14,5.4c-.32.15-.64.3-.97.44l-.05-.11c.32-.14.65-.29.97-.44l.05.11Z"/>
          <path class="cls-2" d="M13.95,5.3c-.32.15-.64.29-.97.44l-.05-.11c.32-.14.65-.29.96-.44l.05.11Z"/>
        </g>
        <g>
          <path class="cls-2" d="M13.36,6.59c-.33.15-.66.29-.99.43l-.04-.11c.33-.14.66-.28.99-.42l.05.11Z"/>
          <path class="cls-3" d="M13.31,6.48c-.33.15-.66.29-.99.42l-.04-.11c.33-.14.66-.28.99-.42l.05.11Z"/>
          <path class="cls-2" d="M13.27,6.37c-.33.14-.66.29-.99.42l-.04-.11c.33-.14.66-.28.99-.42l.05.11Z"/>
          <path class="cls-3" d="M13.22,6.27c-.33.14-.66.29-.99.42l-.04-.11c.33-.14.66-.28.99-.42l.05.11Z"/>
          <path class="cls-2" d="M13.17,6.16c-.33.14-.65.29-.99.42l-.04-.11c.33-.14.66-.28.98-.42l.05.11Z"/>
          <path class="cls-3" d="M13.13,6.05c-.33.14-.65.28-.98.42l-.04-.11c.33-.14.65-.28.98-.42l.05.11Z"/>
          <path class="cls-2" d="M13.08,5.95c-.33.14-.65.28-.98.42l-.04-.11c.33-.14.65-.28.98-.42l.05.11Z"/>
          <path class="cls-3" d="M13.03,5.84c-.32.14-.65.28-.98.42l-.04-.11c.33-.13.65-.27.98-.42l.05.11Z"/>
          <path class="cls-2" d="M12.98,5.73c-.32.14-.65.28-.98.42l-.04-.11c.33-.13.65-.27.97-.42l.05.11Z"/>
        </g>
        <g>
          <path class="cls-2" d="M12.37,7.01c-.33.14-.67.27-1.02.4l-.04-.11c.34-.13.68-.26,1.01-.4l.04.11Z"/>
          <path class="cls-3" d="M12.32,6.91c-.33.14-.67.27-1.01.4l-.04-.11c.34-.12.68-.26,1.01-.4l.04.11Z"/>
          <path class="cls-2" d="M12.28,6.8c-.33.14-.67.27-1.01.4l-.04-.11c.34-.12.67-.26,1-.39l.04.11Z"/>
          <path class="cls-3" d="M12.23,6.69c-.33.14-.66.27-1,.39l-.04-.11c.34-.12.67-.26,1-.39l.04.11Z"/>
          <path class="cls-2" d="M12.19,6.58c-.33.14-.66.27-1,.39l-.04-.11c.33-.12.66-.25.99-.39l.04.11Z"/>
          <path class="cls-3" d="M12.14,6.47c-.33.14-.66.27-.99.39l-.04-.11c.33-.12.66-.25.99-.39l.04.11Z"/>
          <path class="cls-2" d="M12.1,6.37c-.33.14-.66.27-.99.39l-.04-.11c.33-.12.66-.25.98-.39l.04.11Z"/>
          <path class="cls-3" d="M12.05,6.26c-.33.14-.66.27-.98.39l-.04-.11c.33-.12.65-.25.98-.39l.04.11Z"/>
          <path class="cls-2" d="M12.01,6.15c-.33.13-.65.27-.98.39l-.04-.11c.32-.12.65-.25.98-.38l.04.11Z"/>
        </g>
        <g>
          <path class="cls-2" d="M11.35,7.41c-.09.03-.17.06-.26.09-.09.03-.18.06-.27.09-.09.03-.18.06-.28.08l-.15.04c-.07.01-.14.03-.2.03v-.12s.11-.02.18-.03l.14-.04c.1-.02.18-.05.27-.08.09-.03.18-.06.26-.09.09-.03.17-.06.26-.09l.04.11Z"/>
          <path class="cls-3" d="M11.31,7.3c-.09.03-.17.06-.26.09-.09.03-.17.06-.26.09-.09.03-.18.06-.27.08l-.14.04c-.06.01-.13.03-.19.03v-.12s.1-.02.16-.03l.14-.04c.09-.02.18-.05.27-.08.09-.03.18-.06.26-.09.09-.03.17-.06.26-.09l.04.11Z"/>
          <path class="cls-2" d="M11.27,7.19c-.08.03-.17.06-.26.09-.09.03-.17.06-.26.09-.09.03-.18.06-.27.08l-.14.04c-.06,0-.12.02-.17.03v-.12s.09-.02.15-.02l.14-.04c.09-.02.18-.05.26-.08.17-.05.34-.11.51-.18l.04.11Z"/>
          <path class="cls-3" d="M11.23,7.08c-.17.06-.34.12-.51.18-.09.03-.17.05-.26.08l-.14.04c-.05,0-.1.02-.16.02v-.12s.08-.01.13-.02l.13-.03c.09-.02.17-.05.26-.08.17-.05.34-.11.51-.17l.04.11Z"/>
          <path class="cls-2" d="M11.19,6.97c-.17.06-.34.12-.51.17-.09.03-.17.05-.26.08l-.13.03s-.09.02-.14.02v-.12s.07-.01.11-.02l.13-.03c.09-.02.17-.05.25-.07.17-.05.34-.11.5-.17l.04.11Z"/>
          <path class="cls-3" d="M11.15,6.86c-.17.06-.33.12-.5.17-.08.03-.17.05-.25.07l-.13.03s-.08.02-.12.02v-.12s.06-.01.1-.02l.12-.03c.08-.02.17-.05.25-.07.17-.05.33-.11.5-.17l.04.11Z"/>
          <path class="cls-2" d="M11.11,6.75c-.17.06-.33.12-.5.17-.08.03-.17.05-.25.07l-.12.03s-.07.02-.11.02v-.12s.05,0,.08-.01l.12-.03c.08-.02.16-.05.24-.07.08-.02.16-.05.25-.08.08-.03.16-.06.25-.09l.04.11Z"/>
          <path class="cls-3" d="M11.07,6.65c-.08.03-.16.06-.25.09-.08.03-.16.06-.25.08-.08.03-.16.05-.24.07l-.12.03s-.06.01-.09.01v-.12s.04,0,.07-.01l.12-.03c.08-.02.16-.04.24-.07.08-.02.16-.05.24-.08.08-.03.16-.06.24-.09l.04.11Z"/>
          <path class="cls-2" d="M11.03,6.54c-.08.03-.16.06-.24.09-.08.03-.16.06-.24.08-.08.03-.16.05-.24.07l-.12.03s-.05.01-.08.01v-.12s.03,0,.05,0l.11-.03c.08-.02.15-.04.23-.07.08-.02.16-.05.24-.08.08-.03.16-.06.24-.09l.04.11Z"/>
        </g>
        <g>
          <path class="cls-2" d="M10.19,7.75c-.27.02-.5-.02-.7-.07-.21-.05-.39-.12-.57-.19l.04-.11c.18.07.36.13.56.18.2.05.42.08.66.06v.12Z"/>
          <path class="cls-3" d="M10.18,7.63c-.25.02-.46-.01-.66-.06-.2-.05-.38-.11-.56-.18l.04-.11c.17.07.35.13.55.18.19.05.4.08.63.06v.12Z"/>
          <path class="cls-2" d="M10.17,7.51c-.23.02-.43-.01-.63-.06-.19-.05-.37-.11-.55-.18l.04-.11c.17.07.35.13.53.17.18.04.38.07.59.06v.12Z"/>
          <path class="cls-3" d="M10.16,7.4c-.21.02-.4-.01-.59-.06-.18-.05-.36-.11-.53-.17l.04-.11c.17.07.34.13.52.17.18.04.36.07.55.05v.12Z"/>
          <path class="cls-2" d="M10.15,7.28c-.19.02-.37-.01-.55-.05-.18-.04-.35-.1-.52-.17l.04-.11c.33.13.67.24,1.01.22v.12Z"/>
          <path class="cls-3" d="M10.14,7.16c-.34.03-.68-.09-1.01-.22l.04-.11c.32.12.66.23.96.21v.12Z"/>
          <path class="cls-2" d="M10.13,7.05c-.3.02-.64-.08-.96-.21l.04-.11c.31.12.64.22.91.2v.12Z"/>
          <path class="cls-3" d="M10.12,6.93c-.26.02-.59-.08-.91-.2l.04-.11c.16.06.31.11.46.15.15.04.29.05.4.04v.12Z"/>
          <path class="cls-2" d="M10.11,6.82c-.11,0-.25,0-.4-.04-.15-.04-.3-.09-.46-.15l.04-.11c.15.06.3.11.44.15.14.03.27.05.36.04v.12Z"/>
        </g>
        <g>
          <path class="cls-2" d="M8.92,7.49c-.36-.14-.69-.3-1.01-.45l.05-.11c.32.15.65.31,1,.45l-.04.11Z"/>
          <path class="cls-3" d="M8.96,7.38c-.35-.14-.68-.3-1-.45l.05-.11c.32.15.65.31.99.44l-.04.11Z"/>
          <path class="cls-2" d="M9,7.28c-.35-.14-.67-.29-.99-.44l.05-.11c.32.15.65.31.99.44l-.04.11Z"/>
          <path class="cls-3" d="M9.04,7.17c-.34-.13-.66-.29-.99-.44l.05-.11c.32.15.65.31.98.44l-.04.11Z"/>
          <path class="cls-2" d="M9.09,7.06c-.33-.13-.66-.29-.98-.44l.05-.11c.32.15.64.3.97.43l-.04.11Z"/>
          <path class="cls-3" d="M9.13,6.95c-.33-.13-.65-.28-.97-.43l.05-.11c.32.15.64.3.97.43l-.04.11Z"/>
          <path class="cls-2" d="M9.17,6.84c-.32-.13-.64-.28-.97-.43l.05-.11c.32.15.64.3.96.43l-.04.11Z"/>
          <path class="cls-3" d="M9.21,6.73c-.32-.13-.64-.28-.96-.43l.05-.11c.32.15.64.3.95.43l-.04.11Z"/>
          <path class="cls-2" d="M9.26,6.62c-.31-.12-.63-.27-.95-.43l.05-.11c.32.15.64.3.95.42l-.04.11Z"/>
        </g>
        <g>
          <path class="cls-2" d="M7.91,7.04c-.32-.15-.64-.3-.95-.42l.04-.11c.32.12.63.27.95.42l-.05.11Z"/>
          <path class="cls-3" d="M7.96,6.94c-.32-.15-.64-.3-.95-.42l.04-.11c.32.13.64.27.96.42l-.05.11Z"/>
          <path class="cls-2" d="M8.01,6.83c-.32-.15-.64-.3-.96-.42l.04-.11c.33.13.65.28.97.43l-.05.11Z"/>
          <path class="cls-3" d="M8.06,6.73c-.32-.15-.64-.3-.97-.43l.04-.11c.33.13.65.28.98.43l-.05.11Z"/>
          <path class="cls-2" d="M8.1,6.62c-.32-.15-.65-.3-.98-.43l.04-.11c.33.13.66.28.98.43l-.05.11Z"/>
          <path class="cls-3" d="M8.15,6.51c-.32-.15-.65-.3-.98-.43l.04-.11c.34.13.67.28.99.44l-.05.11Z"/>
          <path class="cls-2" d="M8.2,6.41c-.32-.15-.65-.3-.99-.44l.04-.11c.34.13.67.29,1,.44l-.05.11Z"/>
          <path class="cls-3" d="M8.25,6.3c-.32-.15-.65-.3-1-.44l.04-.11c.35.14.68.29,1,.44l-.05.11Z"/>
          <path class="cls-2" d="M8.3,6.2c-.32-.15-.66-.31-1-.44l.04-.11c.35.14.69.29,1.01.45l-.05.11Z"/>
        </g>
        <g>
          <path class="cls-2" d="M6.96,6.62c-.31-.12-.62-.22-.92-.27l.02-.12c.31.05.63.15.94.28l-.04.11Z"/>
          <path class="cls-3" d="M7,6.52c-.32-.12-.63-.23-.94-.28l.02-.12c.32.05.65.16.97.28l-.04.11Z"/>
          <path class="cls-2" d="M7.04,6.41c-.32-.13-.64-.23-.97-.28l.02-.12c.33.06.67.16.99.29l-.04.11Z"/>
          <path class="cls-3" d="M7.09,6.3c-.33-.13-.66-.23-.99-.29l.02-.12c.35.06.68.17,1.01.3l-.04.11Z"/>
          <path class="cls-2" d="M7.13,6.19c-.33-.13-.67-.24-1.01-.3l.02-.12c.36.06.7.17,1.04.3l-.04.11Z"/>
          <path class="cls-3" d="M7.17,6.08c-.33-.13-.68-.24-1.04-.3l.02-.12c.37.06.72.18,1.06.31l-.04.11Z"/>
          <path class="cls-2" d="M7.21,5.97c-.34-.13-.69-.25-1.06-.31l.02-.12c.38.06.74.18,1.08.32l-.04.11Z"/>
          <path class="cls-3" d="M7.26,5.86c-.34-.13-.7-.25-1.08-.32l.02-.12c.39.07.76.19,1.11.32l-.04.11Z"/>
          <path class="cls-2" d="M7.3,5.76c-.35-.14-.71-.26-1.11-.32l.02-.12c.41.07.78.19,1.13.33l-.04.11Z"/>
        </g>
        <g>
          <path class="cls-2" d="M6.04,6.35c-.07-.01-.15-.02-.22-.03h-.11s-.08,0-.12,0c-.17,0-.34,0-.5,0v-.12c.16,0,.33,0,.5,0,.04,0,.09,0,.13,0h.11c.08.01.15.02.23.04l-.02.12Z"/>
          <path class="cls-3" d="M6.06,6.24c-.08-.01-.15-.02-.23-.03h-.11s-.08,0-.13,0c-.17,0-.34,0-.51,0v-.12c.16,0,.34,0,.51,0,.09,0,.17,0,.25,0,.08,0,.16.02.24.03l-.02.12Z"/>
          <path class="cls-2" d="M6.08,6.12c-.08-.01-.16-.02-.24-.03-.08,0-.16,0-.25,0-.17,0-.35,0-.52,0v-.12c.17,0,.34,0,.52,0,.09,0,.17,0,.26,0,.08,0,.17.02.25.03l-.02.12Z"/>
          <path class="cls-3" d="M6.1,6.01c-.08-.01-.17-.02-.25-.03-.08,0-.17,0-.26,0-.18,0-.35,0-.52,0v-.12c.17,0,.35,0,.53,0,.18,0,.35.01.52.04l-.02.12Z"/>
          <path class="cls-2" d="M6.12,5.89c-.17-.03-.35-.04-.52-.04-.18,0-.36,0-.53,0v-.12c.17,0,.35,0,.53,0,.18,0,.36.01.54.05l-.02.12Z"/>
          <path class="cls-3" d="M6.14,5.78c-.18-.03-.36-.05-.54-.05-.18,0-.36,0-.54,0v-.12c.18,0,.36,0,.54,0,.09,0,.18,0,.28.01.09,0,.19.02.28.04l-.02.12Z"/>
          <path class="cls-2" d="M6.15,5.66c-.09-.02-.19-.03-.28-.04-.1,0-.19-.01-.28-.01-.18,0-.36,0-.55,0v-.12c.18,0,.37,0,.55,0,.09,0,.19,0,.29.01.1,0,.19.02.29.04l-.02.12Z"/>
          <path class="cls-3" d="M6.17,5.55c-.1-.02-.19-.03-.29-.04-.1,0-.2-.01-.29-.01-.18,0-.37,0-.55,0v-.12c.19,0,.37,0,.55,0,.05,0,.09,0,.14,0h.15c.1.02.2.03.3.05l-.02.12Z"/>
          <path class="cls-2" d="M6.19,5.43c-.1-.02-.2-.03-.3-.04h-.15c-.05-.01-.09-.01-.14-.01-.18,0-.37,0-.56,0v-.12c.19,0,.38,0,.56,0,.05,0,.09,0,.14,0h.16c.1.02.21.03.31.05l-.02.12Z"/>
        </g>
        <g>
          <path class="cls-2" d="M5.08,6.32c-.08,0-.16.01-.24.02-.07.01-.15.02-.21.03-.13.03-.24.07-.3.11l-.07-.1c.08-.06.2-.1.34-.13.07-.02.15-.02.22-.03.08,0,.16-.02.24-.02v.12Z"/>
          <path class="cls-3" d="M5.08,6.2c-.08,0-.16.01-.24.02-.08.01-.16.02-.22.03-.14.03-.26.07-.34.13l-.07-.1c.1-.07.23-.12.38-.15.07-.02.16-.03.24-.04.08,0,.16-.02.25-.02v.12Z"/>
          <path class="cls-2" d="M5.07,6.09c-.09,0-.17.01-.25.02-.08.01-.16.02-.24.04-.15.03-.29.08-.38.15l-.07-.1c.12-.08.27-.13.43-.17.16-.03.33-.05.5-.06v.12Z"/>
          <path class="cls-3" d="M5.07,5.97c-.17,0-.34.02-.5.06-.16.03-.31.08-.43.17l-.07-.1c.14-.1.3-.15.47-.19.17-.04.35-.05.52-.06v.12Z"/>
          <path class="cls-2" d="M5.06,5.85c-.18,0-.35.02-.52.06-.17.03-.34.09-.47.19l-.07-.1c.16-.11.34-.17.52-.21.18-.04.36-.05.54-.06v.12Z"/>
          <path class="cls-3" d="M5.06,5.74c-.18,0-.36.02-.54.06-.18.04-.36.09-.52.21l-.07-.1c.18-.12.37-.19.56-.22.19-.04.38-.05.56-.06v.12Z"/>
          <path class="cls-2" d="M5.05,5.62c-.18,0-.37.02-.56.06-.19.04-.38.1-.56.22l-.07-.1c.2-.14.41-.2.6-.24.2-.04.39-.06.58-.07v.12Z"/>
          <path class="cls-3" d="M5.04,5.5c-.19,0-.38.02-.58.07-.2.04-.41.11-.6.24l-.07-.1c.21-.15.44-.22.65-.26.11-.02.2-.03.3-.05.1,0,.2-.02.29-.02v.12Z"/>
          <path class="cls-2" d="M5.04,5.39c-.09,0-.19.01-.29.02-.1.01-.2.02-.3.05-.21.04-.43.11-.65.26l-.07-.1c.23-.16.48-.24.69-.28.11-.03.21-.03.32-.05.1,0,.2-.02.3-.02v.12Z"/>
        </g>
        <g>
          <path class="cls-2" d="M4.34,6.48c-.06.04-.09.09-.13.18-.04.09-.06.24-.07.37h-.12c.01-.15.04-.3.08-.41.04-.11.1-.18.17-.24l.07.1Z"/>
          <path class="cls-3" d="M4.27,6.38c-.08.06-.13.12-.17.24-.04.11-.07.26-.08.4h-.12c.01-.16.04-.32.09-.44.05-.13.12-.22.21-.29l.07.1Z"/>
          <path class="cls-2" d="M4.2,6.29c-.1.07-.16.16-.21.29-.05.12-.07.29-.09.44h-.12c.01-.17.04-.34.1-.48.06-.14.14-.26.26-.34l.07.1Z"/>
          <path class="cls-3" d="M4.13,6.19c-.12.08-.2.2-.26.34-.06.14-.08.31-.1.47h-.12c.02-.18.04-.36.1-.51.06-.16.16-.3.3-.39l.07.1Z"/>
          <path class="cls-2" d="M4.07,6.1c-.14.1-.24.24-.3.39-.06.16-.09.33-.1.51h-.12c.02-.19.04-.37.11-.55.07-.17.18-.34.34-.45l.07.1Z"/>
          <path class="cls-3" d="M4,6c-.16.11-.27.27-.34.45-.07.18-.09.36-.11.54h-.12c.02-.2.04-.39.12-.58.07-.19.2-.38.38-.5l.07.1Z"/>
          <path class="cls-2" d="M3.93,5.91c-.18.12-.31.31-.38.5-.08.19-.1.38-.12.57h-.12c0-.06,0-.11.02-.16,0-.05.01-.1.02-.15l.03-.15.05-.15c.08-.21.22-.42.42-.55l.07.1Z"/>
          <path class="cls-3" d="M3.86,5.81c-.2.14-.34.35-.42.55l-.05.15-.03.15c-.01.05-.02.1-.02.15,0,.05-.01.1-.02.15h-.12c0-.07.01-.12.02-.17,0-.05.01-.1.03-.16.01-.05.02-.11.04-.16l.06-.17c.02-.06.05-.11.08-.17.03-.06.07-.11.1-.16.04-.05.09-.1.13-.15.05-.05.1-.09.15-.13l.07.1Z"/>
          <path class="cls-2" d="M3.8,5.72c-.05.04-.11.08-.15.13-.04.05-.09.1-.13.15-.04.05-.08.11-.1.16-.03.06-.06.11-.08.17l-.06.17c-.01.05-.02.11-.04.16-.01.05-.02.1-.03.16,0,.05-.02.1-.02.16h-.12c0-.07.01-.12.02-.18,0-.05.01-.11.03-.16.01-.06.02-.11.04-.17l.06-.18c.02-.06.05-.12.08-.18.03-.06.07-.12.11-.18.04-.06.09-.11.14-.16.05-.05.11-.09.17-.14l.07.1Z"/>
        </g>
        <g>
          <path class="cls-2" d="M4.13,7.03c0,.12,0,.22.03.28.03.06.07.12.15.17l-.07.1c-.1-.07-.16-.14-.2-.22-.04-.09-.05-.2-.04-.34h.12Z"/>
          <path class="cls-3" d="M4.02,7.02c-.01.13,0,.25.04.34.04.09.1.16.2.22l-.07.1c-.11-.08-.19-.17-.24-.27-.05-.11-.06-.24-.05-.39h.12Z"/>
          <path class="cls-2" d="M3.9,7.01c-.01.15,0,.28.05.39.05.11.13.2.24.27l-.07.1c-.13-.08-.22-.19-.28-.33-.06-.13-.07-.28-.06-.44h.12Z"/>
          <path class="cls-3" d="M3.78,7.01c-.01.16,0,.31.06.44.06.13.15.24.28.33l-.07.1c-.14-.09-.26-.22-.32-.38-.07-.15-.08-.33-.07-.5h.12Z"/>
          <path class="cls-2" d="M3.67,7c-.01.17,0,.34.07.5.06.15.18.28.32.38l-.07.1c-.16-.1-.29-.25-.36-.43-.08-.18-.09-.37-.08-.55h.12Z"/>
          <path class="cls-3" d="M3.55,6.99c-.01.18,0,.38.08.55.07.18.21.32.36.43l-.07.1c-.17-.11-.32-.28-.4-.48-.09-.2-.1-.41-.09-.61h.12Z"/>
          <path class="cls-2" d="M3.43,6.98c-.01.2,0,.41.09.61.08.2.23.36.4.48l-.07.1c-.18-.12-.35-.31-.45-.53-.09-.22-.11-.45-.1-.66h.12Z"/>
          <path class="cls-3" d="M3.32,6.97c-.02.21,0,.44.1.66.09.22.26.41.45.53l-.07.1c-.2-.13-.39-.34-.49-.58-.1-.24-.12-.49-.11-.71h.12Z"/>
          <path class="cls-2" d="M3.2,6.97c-.02.22,0,.47.11.71.1.24.29.45.49.58l-.07.1c-.21-.14-.42-.36-.53-.63-.11-.26-.13-.53-.12-.77h.12Z"/>
        </g>
        <g>
          <path class="cls-2" d="M4.32,7.48c.08.06.2.11.33.14.06.02.14.03.21.05.08.01.15.02.23.03v.12c-.09,0-.17-.02-.25-.03-.07-.02-.15-.03-.22-.05-.14-.04-.27-.09-.37-.16l.07-.1Z"/>
          <path class="cls-3" d="M4.25,7.58c.1.07.22.12.37.16.07.02.15.03.22.05.08.01.16.02.24.03v.12c-.1,0-.18-.02-.26-.03-.08-.02-.16-.03-.23-.05-.15-.04-.29-.1-.4-.17l.07-.1Z"/>
          <path class="cls-2" d="M4.19,7.68c.11.08.25.13.4.17.07.02.16.04.23.05.08.01.16.03.25.03v.12c-.1,0-.18-.02-.27-.04-.08-.02-.17-.03-.24-.06-.16-.04-.31-.1-.44-.19l.07-.1Z"/>
          <path class="cls-3" d="M4.12,7.77c.13.09.28.15.44.19.08.03.16.04.24.06.08.01.17.03.25.04v.12c-.1,0-.19-.02-.27-.04-.09-.02-.17-.03-.26-.06-.17-.04-.33-.11-.47-.21l.07-.1Z"/>
          <path class="cls-2" d="M4.06,7.87c.14.1.3.16.47.21.08.03.17.04.26.06.09.01.17.03.26.04v.12c-.1,0-.19-.02-.28-.04-.09-.02-.18-.03-.27-.06-.18-.05-.35-.12-.5-.22l.07-.1Z"/>
          <path class="cls-3" d="M3.99,7.97c.16.11.33.17.5.22.09.03.18.04.27.06.09.01.18.03.27.04v.12c-.1,0-.2-.02-.29-.04-.09-.02-.18-.03-.28-.06-.18-.05-.37-.12-.54-.24l.07-.1Z"/>
          <path class="cls-2" d="M3.93,8.06c.17.12.36.19.54.24.09.03.18.04.28.06.09.01.18.03.28.04v.12c-.11,0-.2-.03-.3-.04-.1-.02-.19-.04-.29-.07-.19-.05-.39-.13-.57-.25l.07-.1Z"/>
          <path class="cls-3" d="M3.86,8.16c.18.12.38.2.57.25.1.03.19.04.29.07.09.01.19.03.28.04v.12c-.11,0-.21-.03-.31-.04-.1-.02-.2-.04-.3-.07-.2-.05-.41-.13-.61-.27l.07-.1Z"/>
          <path class="cls-2" d="M3.8,8.26c.2.13.41.22.61.27.1.03.2.05.3.07.1.01.2.03.29.04v.12c-.11-.01-.21-.03-.31-.04-.1-.02-.2-.04-.31-.07-.21-.06-.43-.14-.64-.29l.07-.1Z"/>
        </g>
        <g>
          <path class="cls-2" d="M5.09,7.71c.08,0,.16.02.24.02h.12s.04,0,.06,0h.05c.14,0,.28-.02.41-.05l.03.11c-.15.03-.29.05-.44.05h-.06s-.04,0-.06,0h-.12c-.08,0-.16-.02-.25-.02v-.12Z"/>
          <path class="cls-3" d="M5.08,7.82c.08,0,.16.02.25.02h.12s.04,0,.06,0h.06c.15,0,.29-.02.44-.06l.03.11c-.15.04-.31.06-.47.06-.07,0-.17,0-.25,0-.09,0-.17-.01-.25-.02v-.12Z"/>
          <path class="cls-2" d="M5.07,7.94c.08,0,.17.02.25.02.08,0,.17.01.25,0,.16,0,.31-.02.47-.06l.03.11c-.16.04-.33.06-.49.06-.17,0-.34,0-.51-.03v-.12Z"/>
          <path class="cls-3" d="M5.06,8.06c.17.02.35.03.51.03.16,0,.33-.02.49-.06l.03.11c-.34.08-.69.07-1.04.04v-.12Z"/>
          <path class="cls-2" d="M5.04,8.17c.35.03.71.05,1.04-.04l.03.11c-.18.04-.36.06-.54.07-.18,0-.36-.01-.54-.03v-.12Z"/>
          <path class="cls-3" d="M5.03,8.29c.18.02.36.03.54.03.18,0,.37-.02.54-.07l.03.11c-.19.04-.38.07-.57.07-.19,0-.37-.01-.55-.03v-.12Z"/>
          <path class="cls-2" d="M5.02,8.4c.19.02.36.03.55.03.19,0,.38-.02.57-.07l.03.11c-.19.05-.39.07-.59.07-.1,0-.19,0-.29,0-.09,0-.19-.02-.28-.02v-.12Z"/>
          <path class="cls-3" d="M5.01,8.52c.09,0,.19.02.28.02.1,0,.18.01.29,0,.2,0,.4-.03.59-.07l.03.11c-.2.05-.41.07-.62.08h-.08s-.07,0-.07,0h-.14c-.09,0-.19-.02-.29-.03v-.12Z"/>
          <path class="cls-2" d="M4.99,8.64c.1,0,.19.02.29.02h.14s.07,0,.07,0h.08c.21,0,.42-.03.62-.08l.03.11c-.21.05-.43.08-.65.08h-.08s-.07,0-.07,0h-.15c-.1,0-.2-.02-.29-.03v-.12Z"/>
        </g>
        <g>
          <path class="cls-2" d="M5.98,7.68c.27-.06.54-.19.8-.36l.06.1c-.26.18-.55.31-.84.38l-.03-.11Z"/>
          <path class="cls-3" d="M6.01,7.79c.29-.07.57-.2.84-.38l.06.1c-.27.18-.57.32-.88.39l-.03-.11Z"/>
          <path class="cls-2" d="M6.03,7.91c.31-.07.6-.21.88-.39l.06.1c-.28.19-.59.33-.91.41l-.03-.11Z"/>
          <path class="cls-3" d="M6.06,8.02c.32-.08.63-.22.91-.41l.06.1c-.29.19-.61.35-.95.43l-.03-.11Z"/>
          <path class="cls-2" d="M6.09,8.14c.34-.08.66-.23.95-.43l.06.1c-.3.2-.63.36-.99.44l-.03-.11Z"/>
          <path class="cls-3" d="M6.12,8.25c.36-.08.69-.24.99-.44l.06.1c-.31.21-.66.37-1.03.46l-.03-.11Z"/>
          <path class="cls-2" d="M6.14,8.36c.37-.09.72-.25,1.03-.46l.06.1c-.32.21-.68.39-1.07.48l-.03-.11Z"/>
          <path class="cls-3" d="M6.17,8.48c.39-.09.75-.26,1.07-.48l.06.1c-.33.22-.7.4-1.1.49l-.03-.11Z"/>
          <path class="cls-2" d="M6.2,8.59c.4-.1.78-.27,1.1-.49l.06.1c-.34.22-.72.41-1.14.51l-.03-.11Z"/>
        </g>
        <g>
          <path class="cls-2" d="M6.78,7.32c.26-.17.5-.38.72-.62l.08.08c-.23.24-.47.46-.74.64l-.06-.1Z"/>
          <path class="cls-3" d="M6.85,7.42c.26-.18.51-.39.74-.64l.08.08c-.23.25-.49.47-.76.65l-.06-.1Z"/>
          <path class="cls-2" d="M6.91,7.51c.27-.18.53-.41.76-.65l.08.08c-.24.25-.5.48-.78.67l-.06-.1Z"/>
          <path class="cls-3" d="M6.98,7.61c.28-.19.54-.42.78-.67l.08.08c-.24.26-.51.49-.8.69l-.06-.1Z"/>
          <path class="cls-2" d="M7.04,7.71c.29-.19.56-.43.8-.69l.08.08c-.25.26-.52.5-.82.7l-.06-.1Z"/>
          <path class="cls-3" d="M7.11,7.81c.3-.2.57-.44.82-.7l.08.08c-.25.27-.53.51-.84.72l-.06-.1Z"/>
          <path class="cls-2" d="M7.17,7.9c.31-.21.59-.45.84-.72l.08.08c-.26.27-.54.53-.86.74l-.06-.1Z"/>
          <path class="cls-3" d="M7.23,8c.32-.21.6-.47.86-.74l.08.08c-.26.28-.55.54-.88.76l-.06-.1Z"/>
          <path class="cls-2" d="M7.3,8.1c.33-.22.62-.48.88-.76l.08.08c-.26.28-.56.55-.9.77l-.06-.1Z"/>
        </g>
        <g>
          <path class="cls-2" d="M7.5,6.7c.22-.24.43-.5.62-.77l.1.07c-.2.28-.41.54-.63.79l-.08-.08Z"/>
          <path class="cls-3" d="M7.59,6.78c.23-.24.44-.51.63-.79l.1.07c-.2.28-.41.55-.64.8l-.08-.08Z"/>
          <path class="cls-2" d="M7.67,6.86c.23-.25.45-.52.64-.8l.1.07c-.2.29-.42.56-.65.81l-.08-.08Z"/>
          <path class="cls-3" d="M7.76,6.94c.24-.25.45-.53.65-.81l.1.07c-.2.29-.42.57-.67.83l-.08-.08Z"/>
          <path class="cls-2" d="M7.84,7.02c.24-.26.46-.54.67-.83l.1.07c-.21.29-.43.58-.68.84l-.08-.08Z"/>
          <path class="cls-3" d="M7.93,7.1c.25-.26.47-.55.68-.84l.1.07c-.21.3-.44.58-.69.85l-.08-.08Z"/>
          <path class="cls-2" d="M8.01,7.18c.25-.27.48-.55.69-.85l.1.07c-.21.3-.44.59-.7.87l-.08-.08Z"/>
          <path class="cls-3" d="M8.09,7.26c.26-.27.49-.56.7-.87l.1.07c-.21.31-.45.6-.71.88l-.08-.08Z"/>
          <path class="cls-2" d="M8.18,7.34c.26-.28.49-.57.71-.88l.1.07c-.22.31-.45.61-.72.89l-.08-.08Z"/>
        </g>
        <g>
          <path class="cls-2" d="M8.12,5.93c.19-.27.37-.57.53-.86l.1.06c-.17.3-.34.6-.54.87l-.1-.07Z"/>
          <path class="cls-3" d="M8.22,5.99c.2-.28.37-.57.54-.87l.1.06c-.17.3-.35.6-.55.88l-.1-.07Z"/>
          <path class="cls-2" d="M8.31,6.06c.2-.28.38-.58.55-.88l.1.06c-.17.31-.35.61-.55.89l-.1-.07Z"/>
          <path class="cls-3" d="M8.41,6.13c.2-.29.38-.59.55-.89l.1.06c-.17.31-.35.62-.56.91l-.1-.07Z"/>
          <path class="cls-2" d="M8.51,6.2c.2-.29.39-.59.56-.91l.1.06c-.17.31-.36.62-.57.92l-.1-.07Z"/>
          <path class="cls-3" d="M8.6,6.26c.21-.29.39-.6.57-.92l.1.06c-.18.32-.36.63-.57.93l-.1-.07Z"/>
          <path class="cls-2" d="M8.7,6.33c.21-.3.4-.61.57-.93l.1.06c-.18.32-.37.64-.58.94l-.1-.07Z"/>
          <path class="cls-3" d="M8.79,6.4c.21-.3.4-.62.58-.94l.1.06c-.18.32-.37.64-.58.95l-.1-.07Z"/>
          <path class="cls-2" d="M8.89,6.46c.22-.31.41-.62.58-.95l.1.06c-.18.33-.37.65-.59.96l-.1-.07Z"/>
        </g>
        <g>
          <path class="cls-2" d="M8.66,5.07c.16-.3.32-.61.46-.92l.11.05c-.15.32-.3.63-.47.93l-.1-.06Z"/>
          <path class="cls-3" d="M8.76,5.12c.17-.3.32-.61.47-.93l.11.05c-.15.32-.3.64-.47.94l-.1-.06Z"/>
          <path class="cls-2" d="M8.86,5.18c.17-.3.32-.62.47-.94l.11.05c-.15.32-.3.64-.47.95l-.1-.06Z"/>
          <path class="cls-3" d="M8.96,5.23c.17-.31.32-.63.47-.95l.11.05c-.15.32-.31.64-.48.95l-.1-.06Z"/>
          <path class="cls-2" d="M9.06,5.29c.17-.31.33-.63.48-.95l.11.05c-.15.32-.31.65-.48.96l-.1-.06Z"/>
          <path class="cls-3" d="M9.17,5.35c.17-.31.33-.64.48-.96l.11.05c-.15.33-.31.65-.48.97l-.1-.06Z"/>
          <path class="cls-2" d="M9.27,5.4c.18-.32.33-.64.48-.97l.11.05c-.15.33-.31.65-.49.97l-.1-.06Z"/>
          <path class="cls-3" d="M9.37,5.46c.18-.32.34-.65.49-.97l.11.05c-.15.33-.31.66-.49.98l-.1-.06Z"/>
          <path class="cls-2" d="M9.47,5.51c.18-.32.34-.65.49-.98l.11.05c-.15.33-.31.66-.49.99l-.1-.06Z"/>
        </g>
        <g>
          <path class="cls-2" d="M9.12,4.14c.15-.32.29-.64.42-.96l.11.04c-.14.32-.27.65-.42.97l-.11-.05Z"/>
          <path class="cls-3" d="M9.22,4.19c.15-.32.29-.64.42-.97l.11.04c-.14.33-.28.65-.42.97l-.11-.05Z"/>
          <path class="cls-2" d="M9.33,4.24c.15-.32.29-.64.42-.97l.11.04c-.14.33-.28.65-.43.97l-.11-.05Z"/>
          <path class="cls-3" d="M9.44,4.29c.15-.32.29-.65.43-.97l.11.04c-.14.33-.28.66-.43.98l-.11-.05Z"/>
          <path class="cls-2" d="M9.54,4.34c.15-.32.29-.65.43-.98l.11.04c-.14.33-.28.66-.43.98l-.11-.05Z"/>
          <path class="cls-3" d="M9.65,4.39c.15-.32.29-.65.43-.98l.11.04c-.14.33-.28.66-.43.99l-.11-.05Z"/>
          <path class="cls-2" d="M9.75,4.43c.15-.33.29-.66.43-.99l.11.04c-.14.33-.28.66-.43.99l-.11-.05Z"/>
          <path class="cls-3" d="M9.86,4.48c.15-.33.29-.66.43-.99l.11.04c-.14.33-.28.67-.44,1l-.11-.05Z"/>
          <path class="cls-2" d="M9.97,4.53c.15-.33.3-.66.44-1l.11.04c-.14.33-.28.67-.44,1l-.11-.05Z"/>
        </g>
        <g>
          <path class="cls-2" d="M9.54,3.18c.14-.32.26-.65.39-.98l.11.04c-.13.33-.26.66-.39.98l-.11-.04Z"/>
          <path class="cls-3" d="M9.65,3.22c.14-.33.27-.65.39-.98l.11.04c-.13.33-.26.66-.39.99l-.11-.04Z"/>
          <path class="cls-2" d="M9.75,3.27c.14-.33.27-.66.39-.99l.11.04c-.13.33-.26.66-.39.99l-.11-.04Z"/>
          <path class="cls-3" d="M9.86,3.31c.14-.33.27-.66.39-.99l.11.04c-.13.33-.26.66-.4.99l-.11-.04Z"/>
          <path class="cls-2" d="M9.97,3.36c.14-.33.27-.66.4-.99l.11.04c-.13.33-.26.67-.4,1l-.11-.04Z"/>
          <path class="cls-3" d="M10.08,3.4c.14-.33.27-.66.4-1l.11.04c-.13.33-.26.67-.4,1l-.11-.04Z"/>
          <path class="cls-2" d="M10.19,3.45c.14-.33.27-.66.4-1l.11.04c-.13.34-.26.67-.4,1l-.11-.04Z"/>
          <path class="cls-3" d="M10.29,3.49c.14-.33.27-.67.4-1l.11.04c-.13.34-.26.67-.4,1l-.11-.04Z"/>
          <path class="cls-2" d="M10.4,3.54c.14-.33.27-.67.4-1l.11.04c-.13.34-.26.67-.4,1.01l-.11-.04Z"/>
        </g>
        <g>
          <path class="cls-2" d="M9.93,2.2c.13-.33.25-.66.36-.99l.11.04c-.11.33-.24.66-.36.99l-.11-.04Z"/>
          <path class="cls-3" d="M10.04,2.24c.13-.33.25-.66.36-.99l.11.04c-.12.33-.24.66-.37,1l-.11-.04Z"/>
          <path class="cls-2" d="M10.15,2.28c.13-.33.25-.66.37-1l.11.04c-.12.33-.24.67-.37,1l-.11-.04Z"/>
          <path class="cls-3" d="M10.26,2.32c.13-.33.25-.67.37-1l.11.04c-.12.34-.24.67-.37,1l-.11-.04Z"/>
          <path class="cls-2" d="M10.37,2.37c.13-.33.25-.67.37-1l.11.04c-.12.34-.24.67-.37,1.01l-.11-.04Z"/>
          <path class="cls-3" d="M10.47,2.41c.13-.33.25-.67.37-1.01l.11.04c-.12.34-.24.67-.37,1.01l-.11-.04Z"/>
          <path class="cls-2" d="M10.58,2.45c.13-.33.25-.67.37-1.01l.11.04c-.12.34-.24.68-.37,1.01l-.11-.04Z"/>
          <path class="cls-3" d="M10.69,2.49c.13-.34.25-.67.37-1.01l.11.04c-.12.35-.25.68-.37,1.02l-.11-.04Z"/>
          <path class="cls-2" d="M10.8,2.53c.13-.34.25-.67.37-1.02l.11.04c-.12.35-.25.68-.38,1.02l-.11-.04Z"/>
        </g>
      </g>
      <g>
        <g>
          <path class="cls-2" d="M1.2,4.97c.28.2.57.39.86.58l-.06.1c-.29-.19-.59-.39-.87-.58l.07-.1Z"/>
          <path class="cls-3" d="M1.13,5.06c.28.2.57.39.87.58l-.06.1c-.29-.19-.59-.39-.87-.59l.07-.1Z"/>
          <path class="cls-2" d="M1.06,5.16c.28.2.58.4.87.59l-.06.1c-.3-.19-.59-.39-.88-.59l.07-.1Z"/>
          <path class="cls-3" d="M.99,5.25c.29.2.58.4.88.59l-.06.1c-.3-.19-.59-.39-.88-.59l.07-.1Z"/>
          <path class="cls-2" d="M.92,5.35c.29.2.58.4.88.59l-.06.1c-.3-.19-.59-.39-.88-.6l.07-.1Z"/>
          <path class="cls-3" d="M.86,5.44c.29.21.59.4.88.6l-.06.1c-.3-.19-.6-.39-.89-.6l.07-.1Z"/>
          <path class="cls-2" d="M.79,5.54c.29.21.59.4.89.6l-.06.1c-.3-.2-.6-.39-.89-.6l.07-.1Z"/>
          <path class="cls-3" d="M.72,5.63c.3.21.59.41.89.6l-.06.1c-.3-.2-.6-.39-.9-.6l.07-.1Z"/>
          <path class="cls-2" d="M.65,5.73c.3.21.59.41.9.6l-.06.1c-.3-.2-.6-.39-.9-.61l.07-.1Z"/>
        </g>
        <g>
          <path class="cls-2" d="M2.06,5.55c.29.19.59.37.88.54l-.06.1c-.3-.17-.6-.36-.89-.55l.06-.1Z"/>
          <path class="cls-3" d="M1.99,5.65c.29.19.59.37.89.55l-.06.1c-.3-.17-.6-.36-.89-.55l.06-.1Z"/>
          <path class="cls-2" d="M1.93,5.74c.29.19.59.38.89.55l-.06.1c-.3-.18-.6-.36-.9-.55l.06-.1Z"/>
          <path class="cls-3" d="M1.87,5.84c.3.19.59.38.9.55l-.06.1c-.31-.18-.61-.36-.9-.56l.06-.1Z"/>
          <path class="cls-2" d="M1.8,5.94c.3.19.6.38.9.56l-.06.1c-.31-.18-.61-.37-.91-.56l.06-.1Z"/>
          <path class="cls-3" d="M1.74,6.04c.3.19.6.38.91.56l-.06.1c-.31-.18-.61-.37-.91-.56l.06-.1Z"/>
          <path class="cls-2" d="M1.68,6.14c.3.19.6.38.91.56l-.06.1c-.31-.18-.62-.37-.92-.56l.06-.1Z"/>
          <path class="cls-3" d="M1.61,6.23c.3.19.61.38.92.56l-.06.1c-.31-.18-.62-.37-.92-.57l.06-.1Z"/>
          <path class="cls-2" d="M1.55,6.33c.3.19.61.39.92.57l-.06.1c-.32-.18-.62-.37-.93-.57l.06-.1Z"/>
        </g>
        <g>
          <path class="cls-2" d="M2.94,6.09c.3.17.6.34.9.48l-.05.11c-.3-.14-.61-.31-.91-.48l.06-.1Z"/>
          <path class="cls-3" d="M2.88,6.19c.3.17.6.34.91.48l-.05.11c-.31-.15-.61-.31-.92-.49l.06-.1Z"/>
          <path class="cls-2" d="M2.83,6.29c.3.17.61.34.92.49l-.05.11c-.31-.15-.62-.32-.92-.49l.06-.1Z"/>
          <path class="cls-3" d="M2.77,6.39c.3.18.61.34.92.49l-.05.11c-.32-.15-.63-.32-.93-.5l.06-.1Z"/>
          <path class="cls-2" d="M2.71,6.5c.31.18.62.35.93.5l-.05.11c-.32-.15-.64-.32-.94-.5l.06-.1Z"/>
          <path class="cls-3" d="M2.65,6.6c.31.18.62.35.94.5l-.05.11c-.33-.15-.64-.33-.95-.51l.06-.1Z"/>
          <path class="cls-2" d="M2.59,6.7c.31.18.62.35.95.51l-.05.11c-.33-.16-.65-.33-.96-.51l.06-.1Z"/>
          <path class="cls-3" d="M2.53,6.8c.31.18.63.35.96.51l-.05.11c-.34-.16-.66-.33-.97-.52l.06-.1Z"/>
          <path class="cls-2" d="M2.47,6.9c.31.18.63.36.97.52l-.05.11c-.34-.16-.66-.34-.98-.52l.06-.1Z"/>
        </g>
        <g>
          <path class="cls-2" d="M3.84,6.57l.22.1.22.08s.07.02.1.03c.03,0,.07.02.1.03.02,0,.04,0,.06,0h.03s.04,0,.04,0v.12c-.06,0-.11,0-.16-.01-.06-.02-.14-.04-.21-.06l-.22-.09-.23-.1.05-.11Z"/>
          <path class="cls-3" d="M3.79,6.67l.23.1.22.09c.07.02.15.04.21.06.05,0,.1.02.16.01v.12c-.07,0-.13,0-.19-.02-.07-.02-.15-.04-.22-.07l-.23-.09-.23-.1.05-.11Z"/>
          <path class="cls-2" d="M3.74,6.78l.23.1.23.09c.07.02.15.05.22.07.06.01.12.02.19.02v.12c-.07,0-.15,0-.22-.02-.08-.02-.16-.04-.24-.07l-.24-.09-.24-.1.05-.11Z"/>
          <path class="cls-3" d="M3.69,6.89l.24.1.24.09c.08.02.16.05.24.07.07.01.14.02.22.02v.12c-.08,0-.17,0-.25-.02-.08-.02-.17-.05-.25-.07l-.24-.09-.24-.11.05-.11Z"/>
          <path class="cls-2" d="M3.64,6.99l.24.11.24.09c.08.03.17.05.25.07.08.02.16.03.25.02v.12c-.09,0-.18,0-.28-.02-.09-.02-.18-.05-.26-.08l-.25-.1-.25-.11.05-.11Z"/>
          <path class="cls-3" d="M3.59,7.1l.25.11.25.1c.09.03.17.05.26.08.09.02.19.03.28.02v.12c-.1,0-.2,0-.3-.03-.09-.02-.18-.05-.27-.08l-.26-.1-.25-.11.05-.11Z"/>
          <path class="cls-2" d="M3.54,7.2l.25.11.26.1c.09.03.18.06.27.08.1.02.21.03.31.03v.12c-.1,0-.22,0-.33-.03-.1-.03-.19-.05-.29-.08l-.27-.1-.25-.11.05-.11Z"/>
          <path class="cls-3" d="M3.49,7.31l.25.11.27.1c.09.03.19.06.29.08.11.02.23.03.34.03v.12c-.11,0-.24,0-.36-.03-.11-.03-.2-.06-.3-.09l-.27-.1-.26-.11.05-.11Z"/>
          <path class="cls-2" d="M3.45,7.41l.26.11.27.1c.1.03.19.06.3.09.13.03.25.04.36.03v.12s-.09,0-.09,0c-.03,0-.07,0-.1,0-.06,0-.13-.02-.2-.03-.06-.01-.11-.03-.16-.04-.05-.02-.1-.03-.15-.05-.09-.04-.19-.07-.28-.11l-.26-.12.05-.11Z"/>
        </g>
        <g>
          <path class="cls-2" d="M4.61,6.82c.11,0,.24-.03.39-.07.14-.04.29-.1.45-.16l.04.11c-.31.13-.63.24-.88.24v-.12Z"/>
          <path class="cls-3" d="M4.62,6.93c.25,0,.57-.12.88-.24l.04.11c-.31.13-.64.24-.92.25v-.12Z"/>
          <path class="cls-2" d="M4.62,7.05c.28,0,.61-.12.92-.25l.04.11c-.32.13-.65.25-.96.26v-.12Z"/>
          <path class="cls-3" d="M4.62,7.17c.31-.01.64-.13.96-.26l.04.11c-.32.13-.66.26-1,.27v-.12Z"/>
          <path class="cls-2" d="M4.63,7.28c.34-.01.68-.14,1-.27l.04.11c-.33.13-.67.26-1.04.28v-.12Z"/>
          <path class="cls-3" d="M4.63,7.4c.37-.01.71-.14,1.04-.28l.04.11c-.17.07-.34.13-.52.19-.18.05-.37.09-.57.1v-.12Z"/>
          <path class="cls-2" d="M4.63,7.52c.2,0,.39-.05.57-.1.18-.05.35-.12.52-.19l.04.11c-.17.07-.34.14-.53.19-.18.05-.38.1-.6.1v-.12Z"/>
          <path class="cls-3" d="M4.64,7.63c.22,0,.41-.05.6-.1.18-.05.36-.12.53-.19l.04.11c-.17.07-.35.14-.54.2-.19.06-.39.1-.63.11v-.12Z"/>
          <path class="cls-2" d="M4.64,7.75c.23,0,.44-.05.63-.11.19-.06.37-.12.54-.2l.04.11c-.17.07-.36.14-.55.2-.2.06-.41.11-.66.11v-.12Z"/>
        </g>
        <g>
          <path class="cls-2" d="M5.45,6.58c.31-.13.62-.28.95-.43l.05.11c-.32.15-.64.3-.95.43l-.04-.11Z"/>
          <path class="cls-3" d="M5.49,6.69c.31-.13.63-.28.95-.43l.05.11c-.32.15-.64.3-.96.43l-.04-.11Z"/>
          <path class="cls-2" d="M5.54,6.8c.32-.13.63-.28.96-.43l.05.11c-.32.15-.64.3-.96.44l-.04-.11Z"/>
          <path class="cls-3" d="M5.58,6.91c.32-.13.64-.29.96-.44l.05.11c-.32.15-.64.3-.97.44l-.04-.11Z"/>
          <path class="cls-2" d="M5.63,7.02c.33-.13.64-.29.97-.44l.05.11c-.32.15-.64.3-.97.44l-.04-.11Z"/>
          <path class="cls-3" d="M5.67,7.12c.33-.14.65-.29.97-.44l.05.11c-.32.15-.64.3-.98.44l-.04-.11Z"/>
          <path class="cls-2" d="M5.72,7.23c.33-.14.65-.29.98-.44l.05.11c-.32.15-.64.3-.98.45l-.04-.11Z"/>
          <path class="cls-3" d="M5.76,7.34c.34-.14.66-.3.98-.45l.05.11c-.32.15-.64.3-.98.45l-.04-.11Z"/>
          <path class="cls-2" d="M5.81,7.45c.34-.14.67-.3.98-.45l.05.11c-.32.15-.64.3-.99.45l-.04-.11Z"/>
        </g>
        <g>
          <path class="cls-2" d="M6.4,6.15c.33-.15.66-.3,1.01-.44l.04.11c-.35.13-.68.28-1.01.43l-.05-.11Z"/>
          <path class="cls-3" d="M6.45,6.26c.32-.15.66-.3,1.01-.43l.04.11c-.34.13-.67.28-1,.43l-.05-.11Z"/>
          <path class="cls-2" d="M6.49,6.37c.32-.15.65-.3,1-.43l.04.11c-.34.13-.67.28-.99.43l-.05-.11Z"/>
          <path class="cls-3" d="M6.54,6.47c.32-.15.65-.3.99-.43l.04.11c-.33.12-.66.27-.98.42l-.05-.11Z"/>
          <path class="cls-2" d="M6.59,6.58c.32-.15.65-.3.98-.42l.04.11c-.33.12-.65.27-.97.42l-.05-.11Z"/>
          <path class="cls-3" d="M6.64,6.68c.32-.15.64-.3.97-.42l.04.11c-.32.12-.64.27-.96.42l-.05-.11Z"/>
          <path class="cls-2" d="M6.69,6.79c.32-.15.64-.29.96-.42l.04.11c-.32.12-.64.26-.96.41l-.05-.11Z"/>
          <path class="cls-3" d="M6.74,6.89c.32-.15.64-.29.96-.41l.04.11c-.31.12-.63.26-.95.41l-.05-.11Z"/>
          <path class="cls-2" d="M6.79,7c.32-.15.63-.29.95-.41l.04.11c-.31.12-.62.26-.94.4l-.05-.11Z"/>
        </g>
        <g>
          <path class="cls-2" d="M7.41,5.72c.35-.13.73-.25,1.14-.3l.02.12c-.4.06-.76.17-1.11.3l-.04-.11Z"/>
          <path class="cls-3" d="M7.45,5.83c.35-.13.72-.24,1.11-.3l.02.12c-.38.05-.74.16-1.09.29l-.04-.11Z"/>
          <path class="cls-2" d="M7.49,5.94c.34-.13.71-.24,1.09-.29l.02.12c-.37.05-.72.16-1.06.29l-.04-.11Z"/>
          <path class="cls-3" d="M7.53,6.04c.34-.13.69-.23,1.06-.29l.02.12c-.36.05-.7.15-1.04.28l-.04-.11Z"/>
          <path class="cls-2" d="M7.57,6.15c.33-.13.68-.23,1.04-.28l.02.12c-.34.05-.68.15-1.01.27l-.04-.11Z"/>
          <path class="cls-3" d="M7.62,6.26c.33-.12.67-.22,1.01-.27l.02.12c-.33.05-.66.14-.99.27l-.04-.11Z"/>
          <path class="cls-2" d="M7.66,6.37c.32-.12.65-.22.99-.27l.02.12c-.32.05-.64.14-.96.26l-.04-.11Z"/>
          <path class="cls-3" d="M7.7,6.48c.32-.12.64-.21.96-.26l.02.12c-.31.04-.62.13-.94.25l-.04-.11Z"/>
          <path class="cls-2" d="M7.74,6.59c.31-.12.63-.21.94-.25l.02.12c-.29.04-.6.13-.91.25l-.04-.11Z"/>
        </g>
        <g>
          <path class="cls-2" d="M8.55,5.41c.1-.01.21-.02.31-.03.06,0,.1,0,.15,0h.14s.28,0,.28,0c.1,0,.19,0,.29.01v.12c-.2-.01-.39-.01-.57-.01h-.14s-.09,0-.14,0c-.1,0-.2.01-.3.03l-.02-.12Z"/>
          <path class="cls-3" d="M8.56,5.53c.1-.01.2-.02.3-.03.05,0,.1,0,.14,0h.14c.18,0,.37,0,.56.01v.12c-.2-.01-.38-.01-.56-.01-.09,0-.18,0-.28,0-.1,0-.2.01-.29.03l-.02-.12Z"/>
          <path class="cls-2" d="M8.58,5.64c.1-.01.19-.02.29-.03.1,0,.18,0,.28,0,.18,0,.37,0,.55.01v.12c-.19-.01-.37-.01-.55-.01-.09,0-.18,0-.27,0-.09,0-.19.01-.28.02l-.02-.12Z"/>
          <path class="cls-3" d="M8.6,5.76c.09-.01.19-.02.28-.02.09,0,.18,0,.27,0,.18,0,.36,0,.54.01v.12c-.19-.01-.37-.01-.54-.01-.18,0-.36,0-.54.03l-.02-.12Z"/>
          <path class="cls-2" d="M8.61,5.88c.18-.02.36-.03.54-.03.18,0,.36,0,.54.01v.12c-.18-.01-.36-.01-.53-.01-.18,0-.35,0-.52.03l-.02-.12Z"/>
          <path class="cls-3" d="M8.63,5.99c.17-.02.35-.03.52-.03.18,0,.35,0,.53.01v.12c-.18-.01-.35-.01-.53-.01-.09,0-.18,0-.26,0-.08,0-.17.01-.25.02l-.02-.12Z"/>
          <path class="cls-2" d="M8.64,6.11c.08,0,.17-.02.25-.02.08,0,.17,0,.26,0,.17,0,.35,0,.52.01v.12c-.17-.01-.34-.01-.52-.01-.08,0-.18,0-.26,0-.08,0-.16.01-.24.02l-.02-.12Z"/>
          <path class="cls-3" d="M8.66,6.22c.08,0,.16-.02.24-.02.08,0,.17,0,.26,0,.17,0,.34,0,.51.01v.12c-.17-.01-.34-.01-.51-.01h-.13s-.09,0-.12,0c-.07,0-.15.01-.23.02l-.02-.12Z"/>
          <path class="cls-2" d="M8.67,6.34c.08,0,.15-.02.23-.02.04,0,.08,0,.12,0h.13c.17,0,.34,0,.5,0v.12c-.09,0-.17,0-.25-.01h-.25s-.13,0-.13,0c-.04,0-.09,0-.12,0-.07,0-.14.01-.22.02l-.02-.12Z"/>
        </g>
        <g>
          <path class="cls-2" d="M9.72,5.39c.2.01.4.04.62.09.22.05.47.16.69.35l-.08.09c-.2-.18-.43-.28-.64-.33-.21-.05-.41-.08-.6-.09v-.12Z"/>
          <path class="cls-3" d="M9.71,5.51c.19.01.39.04.6.09.21.05.44.15.64.33l-.08.09c-.18-.16-.4-.25-.59-.3-.2-.05-.39-.07-.58-.09v-.12Z"/>
          <path class="cls-2" d="M9.7,5.63c.19.01.38.04.58.09.2.05.41.14.59.3l-.08.09c-.16-.14-.36-.23-.54-.27-.19-.05-.37-.07-.56-.08v-.12Z"/>
          <path class="cls-3" d="M9.69,5.74c.18.01.37.04.56.08.19.05.38.13.54.27l-.08.09c-.14-.13-.32-.2-.5-.25-.18-.04-.36-.07-.54-.08v-.12Z"/>
          <path class="cls-2" d="M9.68,5.86c.18.01.36.03.54.08.18.04.35.12.5.25l-.08.09c-.12-.11-.28-.18-.45-.22-.17-.04-.34-.06-.51-.07v-.12Z"/>
          <path class="cls-3" d="M9.68,5.98c.17.01.35.03.51.07.17.04.32.11.45.22l-.08.09c-.21-.19-.56-.24-.89-.27v-.12Z"/>
          <path class="cls-2" d="M9.67,6.09c.34.02.68.08.89.27l-.08.09c-.17-.16-.49-.22-.82-.24v-.12Z"/>
          <path class="cls-3" d="M9.66,6.21c.33.02.65.08.82.24l-.08.09c-.07-.06-.17-.11-.3-.14-.13-.03-.29-.05-.45-.06v-.12Z"/>
          <path class="cls-2" d="M9.65,6.32c.16,0,.31.03.45.06.14.03.23.08.3.14l-.08.09s-.13-.09-.25-.12c-.12-.03-.27-.05-.43-.06v-.12Z"/>
        </g>
        <g>
          <path class="cls-2" d="M11.03,5.84c.05.05.1.1.15.16.04.06.08.11.12.17.03.06.06.12.09.18.03.06.04.12.06.18.02.06.03.11.04.17.01.06.02.11.03.16l.02.16v.18s-.11,0-.11,0v-.17s-.03-.15-.03-.15c0-.05-.02-.1-.03-.16-.01-.05-.02-.11-.04-.16-.02-.06-.03-.11-.06-.16-.03-.06-.05-.11-.08-.17-.04-.05-.07-.11-.11-.16-.04-.05-.09-.1-.14-.14l.08-.09Z"/>
          <path class="cls-3" d="M10.95,5.92s.09.09.14.14c.04.05.07.11.11.16.03.05.06.11.08.17.03.06.04.11.06.16.02.06.03.11.04.16.01.05.02.11.03.16l.02.15v.17s-.11,0-.11,0v-.16s-.03-.15-.03-.15c0-.05-.02-.1-.03-.15-.01-.05-.02-.1-.04-.15-.06-.2-.17-.42-.35-.58l.08-.09Z"/>
          <path class="cls-2" d="M10.87,6.01c.18.16.3.38.35.58.02.05.03.1.04.15.01.05.02.1.03.15l.02.15v.16s-.11,0-.11,0v-.15s-.03-.14-.03-.14c0-.05-.02-.09-.03-.14-.01-.05-.02-.09-.04-.14-.06-.19-.16-.38-.32-.53l.08-.09Z"/>
          <path class="cls-3" d="M10.79,6.1c.16.14.27.34.32.53.02.05.03.1.04.14.01.05.02.1.03.14l.02.14v.15s-.11,0-.11,0v-.14s-.02-.13-.02-.13c0-.05-.01-.09-.02-.13-.01-.04-.02-.09-.03-.13-.05-.18-.14-.35-.29-.48l.08-.09Z"/>
          <path class="cls-2" d="M10.72,6.18c.14.13.24.3.29.48.02.04.02.09.03.13.01.04.02.09.02.13l.02.13v.14s-.11,0-.11,0v-.13s-.02-.13-.02-.13c0-.04-.01-.09-.02-.13,0-.04-.02-.08-.03-.12-.05-.16-.13-.31-.25-.42l.08-.09Z"/>
          <path class="cls-3" d="M10.64,6.27c.12.11.21.26.25.42.02.04.02.08.03.12,0,.04.02.08.02.13l.02.13v.13s-.11,0-.11,0c-.01-.32-.08-.66-.29-.84l.08-.09Z"/>
          <path class="cls-2" d="M10.56,6.36c.21.18.28.53.29.84h-.12s0-.11,0-.11l-.02-.12s-.01-.08-.02-.11c0-.04-.01-.07-.03-.11-.04-.14-.1-.24-.19-.32l.08-.09Z"/>
          <path class="cls-3" d="M10.48,6.45c.09.08.15.18.19.32.01.03.02.07.03.11,0,.04.02.07.02.11l.02.12v.11s-.11,0-.11,0v-.1s-.02-.11-.02-.11c0-.04-.01-.07-.02-.1,0-.03-.01-.07-.02-.1-.04-.12-.09-.21-.15-.27l.08-.09Z"/>
          <path class="cls-2" d="M10.4,6.53c.07.06.12.14.15.27.01.03.02.06.02.1,0,.03.02.07.02.1v.11s.02.1.02.1h-.12s0-.06,0-.09v-.1s-.02-.07-.03-.1c0-.03-.01-.06-.02-.09-.03-.11-.07-.17-.12-.21l.08-.09Z"/>
        </g>
        <g>
          <path class="cls-2" d="M11.55,7.2c0,.24-.04.52-.18.77-.14.25-.36.45-.57.57l-.06-.1c.2-.11.4-.29.53-.52.13-.23.17-.49.17-.71h.12Z"/>
          <path class="cls-3" d="M11.44,7.2c0,.23-.04.48-.17.71-.13.23-.33.41-.53.52l-.06-.1c.19-.11.37-.27.48-.48.12-.21.16-.44.15-.66h.12Z"/>
          <path class="cls-2" d="M11.32,7.2c0,.21-.04.45-.15.66-.11.21-.3.37-.48.48l-.06-.1c.17-.1.34-.25.44-.43.1-.19.14-.4.14-.6h.12Z"/>
          <path class="cls-3" d="M11.2,7.2c0,.2-.04.41-.14.6-.1.19-.27.34-.44.43l-.06-.1c.16-.09.31-.22.4-.39.09-.17.13-.36.12-.54h.12Z"/>
          <path class="cls-2" d="M11.09,7.2c0,.18-.03.37-.12.54-.09.17-.24.3-.4.39l-.06-.1c.15-.08.27-.2.35-.35.08-.15.11-.31.11-.48h.12Z"/>
          <path class="cls-3" d="M10.97,7.2c0,.17-.03.34-.11.48-.08.15-.21.26-.35.35l-.06-.1c.13-.08.24-.18.31-.3.07-.12.1-.27.1-.43h.12Z"/>
          <path class="cls-2" d="M10.85,7.2c0,.16-.03.3-.1.43-.07.12-.18.22-.31.3l-.06-.1c.24-.14.35-.34.35-.62h.12Z"/>
          <path class="cls-3" d="M10.74,7.2c0,.29-.1.49-.35.62l-.06-.1c.21-.13.29-.26.29-.52h.12Z"/>
          <path class="cls-2" d="M10.62,7.21c0,.26-.08.4-.29.52l-.06-.1c.09-.05.15-.11.18-.17.03-.06.05-.14.05-.25h.12Z"/>
        </g>
        <g>
          <path class="cls-2" d="M10.8,8.54c-.22.12-.43.19-.63.25-.2.05-.41.08-.6.09v-.12c.18-.01.38-.05.57-.09.2-.05.4-.12.6-.23l.06.1Z"/>
          <path class="cls-3" d="M10.74,8.44c-.2.11-.4.18-.6.23-.2.04-.39.08-.58.09v-.12c.36-.04.75-.1,1.13-.31l.06.1Z"/>
          <path class="cls-2" d="M10.68,8.33c-.38.21-.77.27-1.14.31v-.12c.35-.03.73-.1,1.08-.29l.06.1Z"/>
          <path class="cls-3" d="M10.62,8.23c-.35.2-.73.26-1.09.29v-.12c.17-.01.35-.04.52-.08.18-.05.35-.1.51-.2l.06.1Z"/>
          <path class="cls-2" d="M10.57,8.13c-.16.09-.34.15-.51.2-.18.04-.35.07-.53.08v-.12c.16-.01.34-.04.51-.08.17-.04.33-.1.48-.18l.06.1Z"/>
          <path class="cls-3" d="M10.51,8.03c-.15.08-.31.14-.48.18-.17.04-.34.07-.52.08v-.12c.16-.01.33-.04.49-.08.16-.04.31-.09.45-.17l.06.1Z"/>
          <path class="cls-2" d="M10.45,7.93c-.13.08-.29.13-.45.17-.16.04-.33.06-.5.08v-.12c.16-.01.32-.04.47-.07.15-.04.3-.09.42-.16l.06.1Z"/>
          <path class="cls-3" d="M10.39,7.83c-.12.07-.27.12-.42.16-.16.03-.32.06-.48.07v-.12c.15-.01.31-.04.46-.07.14-.04.28-.08.39-.15l.06.1Z"/>
          <path class="cls-2" d="M10.33,7.73c-.11.06-.24.11-.39.15-.15.03-.3.06-.47.07v-.12c.15-.01.3-.04.44-.07.14-.04.26-.08.36-.13l.06.1Z"/>
        </g>
        <g>
          <path class="cls-2" d="M9.57,8.88c-.1.01-.2.02-.29.02-.05,0-.09,0-.15,0h-.16c-.05,0-.11,0-.16-.01l-.16-.02c-.05,0-.11-.01-.16-.03l-.16-.04.03-.11.15.04c.05.01.1.02.15.02l.15.02c.05,0,.1,0,.16,0h.16c.05,0,.1,0,.14,0,.09,0,.19,0,.29-.02v.12Z"/>
          <path class="cls-3" d="M9.55,8.76c-.1.01-.19.02-.29.02-.05,0-.09,0-.14,0h-.16c-.05,0-.1,0-.16-.01l-.15-.02c-.05,0-.1-.01-.15-.02l-.15-.04.03-.11.14.04s.1.02.15.02l.15.02s.1,0,.15,0h.15s.09,0,.14,0c.09,0,.19,0,.28-.02v.12Z"/>
          <path class="cls-2" d="M9.54,8.64c-.09,0-.19.02-.28.02-.05,0-.09,0-.14,0h-.15s-.1,0-.15-.01l-.15-.02s-.1-.01-.15-.02l-.14-.04.03-.11.14.04s.09.01.14.02l.14.02s.1,0,.14,0h.14s.09,0,.14,0c.09,0,.18,0,.27-.02v.12Z"/>
          <path class="cls-3" d="M9.53,8.53c-.09,0-.18.01-.27.02-.05,0-.09,0-.14,0h-.14s-.1,0-.14-.01l-.14-.02s-.09-.01-.14-.02l-.14-.04.03-.11.13.03s.09.01.13.02l.13.02s.09,0,.14,0h.14s.09,0,.13,0c.09,0,.18,0,.27-.02v.12Z"/>
          <path class="cls-2" d="M9.52,8.41c-.09,0-.18.01-.27.02-.04,0-.09,0-.13,0h-.14s-.09,0-.14-.01l-.13-.02s-.09-.01-.13-.02l-.13-.03.03-.11c.33.09.68.09,1.03.06v.12Z"/>
          <path class="cls-3" d="M9.51,8.29c-.35.03-.7.03-1.03-.06l.03-.11c.32.09.65.09.99.06v.12Z"/>
          <path class="cls-2" d="M9.5,8.18c-.35.03-.67.03-.99-.06l.03-.11.11.03s.08.01.12.02l.12.02s.08,0,.12,0h.12s.08,0,.13,0c.08,0,.17,0,.25-.02v.12Z"/>
          <path class="cls-3" d="M9.49,8.06c-.08,0-.17.01-.25.02-.04,0-.09,0-.13,0h-.12s-.08,0-.12,0l-.12-.02s-.08,0-.12-.02l-.11-.03.03-.11.11.03s.07.01.11.02l.11.02s.07,0,.11,0h.11s.08,0,.12,0c.08,0,.17,0,.25-.02v.12Z"/>
          <path class="cls-2" d="M9.48,7.95c-.08,0-.16.01-.25.02-.04,0-.08,0-.12,0h-.11s-.07,0-.11,0l-.11-.02s-.07,0-.11-.02l-.11-.03.03-.11.1.03s.07.01.1.02l.1.02s.07,0,.1,0h.1s.08,0,.12,0c.08,0,.16,0,.24-.02v.12Z"/>
        </g>
        <g>
          <path class="cls-2" d="M8.33,8.8c-.41-.11-.79-.3-1.12-.53l.07-.1c.32.22.68.41,1.08.51l-.03.11Z"/>
          <path class="cls-3" d="M8.36,8.69c-.4-.11-.76-.29-1.08-.51l.07-.1c.31.22.66.4,1.05.5l-.03.11Z"/>
          <path class="cls-2" d="M8.39,8.57c-.38-.1-.73-.28-1.05-.5l.07-.1c.3.21.64.38,1.01.48l-.03.11Z"/>
          <path class="cls-3" d="M8.42,8.46c-.37-.1-.71-.27-1.01-.48l.07-.1c.3.2.62.37.97.46l-.03.11Z"/>
          <path class="cls-2" d="M8.45,8.35c-.35-.09-.68-.26-.97-.46l.07-.1c.29.2.6.36.94.45l-.03.11Z"/>
          <path class="cls-3" d="M8.48,8.23c-.33-.09-.65-.25-.94-.45l.07-.1c.28.19.58.34.9.43l-.03.11Z"/>
          <path class="cls-2" d="M8.51,8.12c-.32-.08-.62-.24-.9-.43l.07-.1c.27.19.56.33.86.41l-.03.11Z"/>
          <path class="cls-3" d="M8.54,8.01c-.3-.08-.59-.23-.86-.41l.07-.1c.26.18.54.32.83.4l-.03.11Z"/>
          <path class="cls-2" d="M8.57,7.9c-.29-.08-.57-.22-.83-.4l.07-.1c.25.17.52.31.79.38l-.03.11Z"/>
        </g>
        <g>
          <path class="cls-2" d="M7.21,8.27c-.33-.23-.62-.49-.88-.78l.09-.08c.26.28.54.54.86.76l-.07.1Z"/>
          <path class="cls-3" d="M7.28,8.17c-.32-.22-.61-.48-.86-.76l.09-.08c.25.27.53.53.85.74l-.07.1Z"/>
          <path class="cls-2" d="M7.34,8.08c-.31-.22-.59-.47-.85-.74l.09-.08c.25.27.52.51.83.73l-.07.1Z"/>
          <path class="cls-3" d="M7.41,7.98c-.3-.21-.58-.46-.83-.73l.09-.08c.24.26.51.5.81.71l-.07.1Z"/>
          <path class="cls-2" d="M7.47,7.88c-.3-.2-.56-.45-.81-.71l.09-.08c.24.26.5.49.79.69l-.07.1Z"/>
          <path class="cls-3" d="M7.54,7.79c-.29-.2-.55-.44-.79-.69l.09-.08c.23.25.49.48.77.68l-.07.1Z"/>
          <path class="cls-2" d="M7.61,7.69c-.28-.19-.53-.42-.77-.68l.09-.08c.23.25.48.47.75.66l-.07.1Z"/>
          <path class="cls-3" d="M7.67,7.6c-.27-.19-.52-.41-.75-.66l.09-.08c.23.24.47.46.73.64l-.07.1Z"/>
          <path class="cls-2" d="M7.74,7.5c-.26-.18-.5-.4-.73-.64l.09-.08c.22.24.46.45.71.62l-.07.1Z"/>
        </g>
        <g>
          <path class="cls-2" d="M6.32,7.49c-.26-.28-.49-.58-.71-.89l.1-.07c.21.3.44.6.7.88l-.09.08Z"/>
          <path class="cls-3" d="M6.41,7.41c-.26-.28-.48-.57-.7-.88l.1-.07c.21.3.43.59.69.87l-.09.08Z"/>
          <path class="cls-2" d="M6.5,7.33c-.25-.27-.48-.56-.69-.87l.1-.07c.21.3.43.58.68.85l-.09.08Z"/>
          <path class="cls-3" d="M6.58,7.25c-.25-.27-.47-.56-.68-.85l.1-.07c.2.29.42.58.66.84l-.09.08Z"/>
          <path class="cls-2" d="M6.67,7.18c-.24-.26-.46-.55-.66-.84l.1-.07c.2.29.42.57.65.83l-.09.08Z"/>
          <path class="cls-3" d="M6.75,7.1c-.24-.26-.45-.54-.65-.83l.1-.07c.2.29.41.56.64.81l-.09.08Z"/>
          <path class="cls-2" d="M6.84,7.02c-.23-.25-.45-.53-.64-.81l.1-.07c.19.28.4.55.63.8l-.09.08Z"/>
          <path class="cls-3" d="M6.92,6.94c-.23-.25-.44-.52-.63-.8l.1-.07c.19.28.4.54.62.79l-.09.08Z"/>
          <path class="cls-2" d="M7.01,6.86c-.22-.24-.43-.51-.62-.79l.1-.07c.19.27.39.54.61.77l-.09.08Z"/>
        </g>
        <g>
          <path class="cls-2" d="M5.62,6.6c-.21-.31-.41-.63-.58-.95l.1-.06c.17.32.36.64.58.94l-.1.07Z"/>
          <path class="cls-3" d="M5.71,6.53c-.21-.3-.4-.62-.58-.94l.1-.06c.17.32.36.63.57.93l-.1.07Z"/>
          <path class="cls-2" d="M5.81,6.47c-.21-.3-.4-.61-.57-.93l.1-.06c.17.32.36.63.56.92l-.1.07Z"/>
          <path class="cls-3" d="M5.91,6.4c-.21-.3-.39-.61-.56-.92l.1-.06c.17.31.35.62.56.91l-.1.07Z"/>
          <path class="cls-2" d="M6,6.34c-.2-.29-.39-.6-.56-.91l.1-.06c.17.31.35.61.55.9l-.1.07Z"/>
          <path class="cls-3" d="M6.1,6.27c-.2-.29-.38-.59-.55-.9l.1-.06c.17.31.35.61.54.89l-.1.07Z"/>
          <path class="cls-2" d="M6.2,6.2c-.2-.29-.38-.58-.54-.89l.1-.06c.16.3.34.6.54.88l-.1.07Z"/>
          <path class="cls-3" d="M6.29,6.14c-.2-.28-.37-.58-.54-.88l.1-.06c.16.3.34.59.53.87l-.1.07Z"/>
          <path class="cls-2" d="M6.39,6.07c-.19-.28-.37-.57-.53-.87l.1-.06c.16.3.33.59.53.86l-.1.07Z"/>
        </g>
        <g>
          <path class="cls-2" d="M5.04,5.65c-.18-.33-.34-.65-.49-.98l.11-.05c.15.33.31.65.49.98l-.1.06Z"/>
          <path class="cls-3" d="M5.14,5.59c-.18-.32-.34-.65-.49-.98l.11-.05c.15.33.31.65.48.97l-.1.06Z"/>
          <path class="cls-2" d="M5.24,5.54c-.17-.32-.33-.64-.48-.97l.11-.05c.15.32.31.65.48.96l-.1.06Z"/>
          <path class="cls-3" d="M5.34,5.48c-.17-.32-.33-.64-.48-.96l.11-.05c.15.32.3.64.48.96l-.1.06Z"/>
          <path class="cls-2" d="M5.45,5.42c-.17-.31-.33-.63-.48-.96l.11-.05c.15.32.3.64.47.95l-.1.06Z"/>
          <path class="cls-3" d="M5.55,5.37c-.17-.31-.32-.63-.47-.95l.11-.05c.15.32.3.64.47.94l-.1.06Z"/>
          <path class="cls-2" d="M5.65,5.31c-.17-.31-.32-.62-.47-.94l.11-.05c.15.32.3.63.47.93l-.1.06Z"/>
          <path class="cls-3" d="M5.75,5.26c-.17-.3-.32-.62-.47-.93l.11-.05c.15.32.3.63.46.93l-.1.06Z"/>
          <path class="cls-2" d="M5.86,5.2c-.16-.3-.32-.61-.46-.93l.11-.05c.14.31.3.62.46.92l-.1.06Z"/>
        </g>
        <g>
          <path class="cls-2" d="M4.55,4.66c-.15-.33-.3-.66-.43-.99l.11-.04c.14.33.28.66.43.99l-.11.05Z"/>
          <path class="cls-3" d="M4.65,4.62c-.15-.33-.29-.66-.43-.99l.11-.04c.14.33.28.66.43.98l-.11.05Z"/>
          <path class="cls-2" d="M4.76,4.57c-.15-.33-.29-.65-.43-.98l.11-.04c.14.33.28.66.43.98l-.11.05Z"/>
          <path class="cls-3" d="M4.86,4.52c-.15-.32-.29-.65-.43-.98l.11-.04c.14.33.28.65.43.98l-.11.05Z"/>
          <path class="cls-2" d="M4.97,4.47c-.15-.32-.29-.65-.43-.98l.11-.04c.14.33.28.65.43.97l-.11.05Z"/>
          <path class="cls-3" d="M5.08,4.42c-.15-.32-.29-.65-.43-.97l.11-.04c.14.33.28.65.42.97l-.11.05Z"/>
          <path class="cls-2" d="M5.18,4.37c-.15-.32-.29-.64-.42-.97l.11-.04c.14.32.27.65.42.96l-.11.05Z"/>
          <path class="cls-3" d="M5.29,4.32c-.15-.32-.29-.64-.42-.96l.11-.04c.14.32.27.64.42.96l-.11.05Z"/>
          <path class="cls-2" d="M5.39,4.27c-.15-.32-.29-.64-.42-.96l.11-.04c.13.32.27.64.42.96l-.11.05Z"/>
        </g>
        <g>
          <path class="cls-2" d="M4.11,3.67c-.14-.33-.27-.67-.4-1l.11-.04c.13.33.26.67.4,1l-.11.04Z"/>
          <path class="cls-3" d="M4.22,3.63c-.14-.33-.27-.66-.4-1l.11-.04c.13.33.26.66.4.99l-.11.04Z"/>
          <path class="cls-2" d="M4.33,3.58c-.14-.33-.27-.66-.4-.99l.11-.04c.13.33.26.66.4.99l-.11.04Z"/>
          <path class="cls-3" d="M4.43,3.54c-.14-.33-.27-.66-.4-.99l.11-.04c.13.33.26.66.4.99l-.11.04Z"/>
          <path class="cls-2" d="M4.54,3.49c-.14-.33-.27-.66-.4-.99l.11-.04c.13.33.26.66.39.99l-.11.04Z"/>
          <path class="cls-3" d="M4.65,3.45c-.14-.33-.27-.66-.39-.99l.11-.04c.13.33.26.66.39.98l-.11.04Z"/>
          <path class="cls-2" d="M4.76,3.4c-.14-.33-.27-.65-.39-.98l.11-.04c.13.33.26.66.39.98l-.11.04Z"/>
          <path class="cls-3" d="M4.87,3.36c-.14-.32-.27-.65-.39-.98l.11-.04c.13.33.26.65.39.98l-.11.04Z"/>
          <path class="cls-2" d="M4.97,3.31c-.14-.32-.27-.65-.39-.98l.11-.04c.13.33.26.65.39.97l-.11.04Z"/>
        </g>
        <g>
          <path class="cls-2" d="M3.71,2.67c-.13-.34-.25-.67-.38-1.01l.11-.04c.12.34.25.67.37,1.01l-.11.04Z"/>
          <path class="cls-3" d="M3.82,2.63c-.13-.33-.25-.67-.37-1.01l.11-.04c.12.34.24.67.37,1.01l-.11.04Z"/>
          <path class="cls-2" d="M3.93,2.59c-.13-.33-.25-.67-.37-1.01l.11-.04c.12.34.24.67.37,1l-.11.04Z"/>
          <path class="cls-3" d="M4.04,2.55c-.13-.33-.25-.66-.37-1l.11-.04c.12.34.24.67.37,1l-.11.04Z"/>
          <path class="cls-2" d="M4.15,2.5c-.13-.33-.25-.66-.37-1l.11-.04c.12.33.24.67.37,1l-.11.04Z"/>
          <path class="cls-3" d="M4.25,2.46c-.13-.33-.25-.66-.37-1l.11-.04c.12.33.24.66.37.99l-.11.04Z"/>
          <path class="cls-2" d="M4.36,2.42c-.13-.33-.25-.66-.37-.99l.11-.04c.12.33.24.66.37.99l-.11.04Z"/>
          <path class="cls-3" d="M4.47,2.38c-.13-.33-.25-.66-.37-.99l.11-.04c.12.33.24.66.36.98l-.11.04Z"/>
          <path class="cls-2" d="M4.58,2.34c-.13-.33-.25-.66-.36-.98l.11-.04c.11.32.24.66.36.98l-.11.04Z"/>
        </g>
      </g>
      <g class="cls-4">
        <g>
          <g>
            <path class="cls-2" d="M14.35,6.14c-.33.15-.66.3-.99.45l-.05-.11c.33-.15.65-.29.98-.44l.05.11Z"/>
            <path class="cls-3" d="M14.3,6.04c-.33.15-.65.3-.98.44l-.05-.11c.33-.15.65-.29.98-.44l.05.11Z"/>
            <path class="cls-2" d="M14.25,5.93c-.33.15-.65.3-.98.44l-.05-.11c.33-.14.65-.29.98-.44l.05.11Z"/>
            <path class="cls-3" d="M14.2,5.82c-.33.15-.65.3-.98.44l-.05-.11c.33-.14.65-.29.98-.44l.05.11Z"/>
            <path class="cls-2" d="M14.15,5.72c-.32.15-.65.3-.98.44l-.05-.11c.33-.14.65-.29.97-.44l.05.11Z"/>
            <path class="cls-3" d="M14.1,5.61c-.32.15-.65.3-.97.44l-.05-.11c.33-.14.65-.29.97-.44l.05.11Z"/>
            <path class="cls-2" d="M14.05,5.51c-.32.15-.65.3-.97.44l-.05-.11c.32-.14.65-.29.97-.44l.05.11Z"/>
            <path class="cls-3" d="M14,5.4c-.32.15-.64.3-.97.44l-.05-.11c.32-.14.65-.29.97-.44l.05.11Z"/>
            <path class="cls-2" d="M13.95,5.3c-.32.15-.64.29-.97.44l-.05-.11c.32-.14.65-.29.96-.44l.05.11Z"/>
          </g>
          <g>
            <path class="cls-2" d="M13.36,6.59c-.33.15-.66.29-.99.43l-.04-.11c.33-.14.66-.28.99-.42l.05.11Z"/>
            <path class="cls-3" d="M13.31,6.48c-.33.15-.66.29-.99.42l-.04-.11c.33-.14.66-.28.99-.42l.05.11Z"/>
            <path class="cls-2" d="M13.27,6.37c-.33.14-.66.29-.99.42l-.04-.11c.33-.14.66-.28.99-.42l.05.11Z"/>
            <path class="cls-3" d="M13.22,6.27c-.33.14-.66.29-.99.42l-.04-.11c.33-.14.66-.28.99-.42l.05.11Z"/>
            <path class="cls-2" d="M13.17,6.16c-.33.14-.65.29-.99.42l-.04-.11c.33-.14.66-.28.98-.42l.05.11Z"/>
            <path class="cls-3" d="M13.13,6.05c-.33.14-.65.28-.98.42l-.04-.11c.33-.14.65-.28.98-.42l.05.11Z"/>
            <path class="cls-2" d="M13.08,5.95c-.33.14-.65.28-.98.42l-.04-.11c.33-.14.65-.28.98-.42l.05.11Z"/>
            <path class="cls-3" d="M13.03,5.84c-.32.14-.65.28-.98.42l-.04-.11c.33-.13.65-.27.98-.42l.05.11Z"/>
            <path class="cls-2" d="M12.98,5.73c-.32.14-.65.28-.98.42l-.04-.11c.33-.13.65-.27.97-.42l.05.11Z"/>
          </g>
          <g>
            <path class="cls-2" d="M12.37,7.01c-.33.14-.67.27-1.02.4l-.04-.11c.34-.13.68-.26,1.01-.4l.04.11Z"/>
            <path class="cls-3" d="M12.32,6.91c-.33.14-.67.27-1.01.4l-.04-.11c.34-.12.68-.26,1.01-.4l.04.11Z"/>
            <path class="cls-2" d="M12.28,6.8c-.33.14-.67.27-1.01.4l-.04-.11c.34-.12.67-.26,1-.39l.04.11Z"/>
            <path class="cls-3" d="M12.23,6.69c-.33.14-.66.27-1,.39l-.04-.11c.34-.12.67-.26,1-.39l.04.11Z"/>
            <path class="cls-2" d="M12.19,6.58c-.33.14-.66.27-1,.39l-.04-.11c.33-.12.66-.25.99-.39l.04.11Z"/>
            <path class="cls-3" d="M12.14,6.47c-.33.14-.66.27-.99.39l-.04-.11c.33-.12.66-.25.99-.39l.04.11Z"/>
            <path class="cls-2" d="M12.1,6.37c-.33.14-.66.27-.99.39l-.04-.11c.33-.12.66-.25.98-.39l.04.11Z"/>
            <path class="cls-3" d="M12.05,6.26c-.33.14-.66.27-.98.39l-.04-.11c.33-.12.65-.25.98-.39l.04.11Z"/>
            <path class="cls-2" d="M12.01,6.15c-.33.13-.65.27-.98.39l-.04-.11c.32-.12.65-.25.98-.38l.04.11Z"/>
          </g>
          <g>
            <path class="cls-2" d="M11.35,7.41c-.09.03-.17.06-.26.09-.09.03-.18.06-.27.09-.09.03-.18.06-.28.08l-.15.04c-.07.01-.14.03-.2.03v-.12s.11-.02.18-.03l.14-.04c.1-.02.18-.05.27-.08.09-.03.18-.06.26-.09.09-.03.17-.06.26-.09l.04.11Z"/>
            <path class="cls-3" d="M11.31,7.3c-.09.03-.17.06-.26.09-.09.03-.17.06-.26.09-.09.03-.18.06-.27.08l-.14.04c-.06.01-.13.03-.19.03v-.12s.1-.02.16-.03l.14-.04c.09-.02.18-.05.27-.08.09-.03.18-.06.26-.09.09-.03.17-.06.26-.09l.04.11Z"/>
            <path class="cls-2" d="M11.27,7.19c-.08.03-.17.06-.26.09-.09.03-.17.06-.26.09-.09.03-.18.06-.27.08l-.14.04c-.06,0-.12.02-.17.03v-.12s.09-.02.15-.02l.14-.04c.09-.02.18-.05.26-.08.17-.05.34-.11.51-.18l.04.11Z"/>
            <path class="cls-3" d="M11.23,7.08c-.17.06-.34.12-.51.18-.09.03-.17.05-.26.08l-.14.04c-.05,0-.1.02-.16.02v-.12s.08-.01.13-.02l.13-.03c.09-.02.17-.05.26-.08.17-.05.34-.11.51-.17l.04.11Z"/>
            <path class="cls-2" d="M11.19,6.97c-.17.06-.34.12-.51.17-.09.03-.17.05-.26.08l-.13.03s-.09.02-.14.02v-.12s.07-.01.11-.02l.13-.03c.09-.02.17-.05.25-.07.17-.05.34-.11.5-.17l.04.11Z"/>
            <path class="cls-3" d="M11.15,6.86c-.17.06-.33.12-.5.17-.08.03-.17.05-.25.07l-.13.03s-.08.02-.12.02v-.12s.06-.01.1-.02l.12-.03c.08-.02.17-.05.25-.07.17-.05.33-.11.5-.17l.04.11Z"/>
            <path class="cls-2" d="M11.11,6.75c-.17.06-.33.12-.5.17-.08.03-.17.05-.25.07l-.12.03s-.07.02-.11.02v-.12s.05,0,.08-.01l.12-.03c.08-.02.16-.05.24-.07.08-.02.16-.05.25-.08.08-.03.16-.06.25-.09l.04.11Z"/>
            <path class="cls-3" d="M11.07,6.65c-.08.03-.16.06-.25.09-.08.03-.16.06-.25.08-.08.03-.16.05-.24.07l-.12.03s-.06.01-.09.01v-.12s.04,0,.07-.01l.12-.03c.08-.02.16-.04.24-.07.08-.02.16-.05.24-.08.08-.03.16-.06.24-.09l.04.11Z"/>
            <path class="cls-2" d="M11.03,6.54c-.08.03-.16.06-.24.09-.08.03-.16.06-.24.08-.08.03-.16.05-.24.07l-.12.03s-.05.01-.08.01v-.12s.03,0,.05,0l.11-.03c.08-.02.15-.04.23-.07.08-.02.16-.05.24-.08.08-.03.16-.06.24-.09l.04.11Z"/>
          </g>
          <g>
            <path class="cls-2" d="M10.19,7.75c-.27.02-.5-.02-.7-.07-.21-.05-.39-.12-.57-.19l.04-.11c.18.07.36.13.56.18.2.05.42.08.66.06v.12Z"/>
            <path class="cls-3" d="M10.18,7.63c-.25.02-.46-.01-.66-.06-.2-.05-.38-.11-.56-.18l.04-.11c.17.07.35.13.55.18.19.05.4.08.63.06v.12Z"/>
            <path class="cls-2" d="M10.17,7.51c-.23.02-.43-.01-.63-.06-.19-.05-.37-.11-.55-.18l.04-.11c.17.07.35.13.53.17.18.04.38.07.59.06v.12Z"/>
            <path class="cls-3" d="M10.16,7.4c-.21.02-.4-.01-.59-.06-.18-.05-.36-.11-.53-.17l.04-.11c.17.07.34.13.52.17.18.04.36.07.55.05v.12Z"/>
            <path class="cls-2" d="M10.15,7.28c-.19.02-.37-.01-.55-.05-.18-.04-.35-.1-.52-.17l.04-.11c.33.13.67.24,1.01.22v.12Z"/>
            <path class="cls-3" d="M10.14,7.16c-.34.03-.68-.09-1.01-.22l.04-.11c.32.12.66.23.96.21v.12Z"/>
            <path class="cls-2" d="M10.13,7.05c-.3.02-.64-.08-.96-.21l.04-.11c.31.12.64.22.91.2v.12Z"/>
            <path class="cls-3" d="M10.12,6.93c-.26.02-.59-.08-.91-.2l.04-.11c.16.06.31.11.46.15.15.04.29.05.4.04v.12Z"/>
            <path class="cls-2" d="M10.11,6.82c-.11,0-.25,0-.4-.04-.15-.04-.3-.09-.46-.15l.04-.11c.15.06.3.11.44.15.14.03.27.05.36.04v.12Z"/>
          </g>
          <g>
            <path class="cls-2" d="M8.92,7.49c-.36-.14-.69-.3-1.01-.45l.05-.11c.32.15.65.31,1,.45l-.04.11Z"/>
            <path class="cls-3" d="M8.96,7.38c-.35-.14-.68-.3-1-.45l.05-.11c.32.15.65.31.99.44l-.04.11Z"/>
            <path class="cls-2" d="M9,7.28c-.35-.14-.67-.29-.99-.44l.05-.11c.32.15.65.31.99.44l-.04.11Z"/>
            <path class="cls-3" d="M9.04,7.17c-.34-.13-.66-.29-.99-.44l.05-.11c.32.15.65.31.98.44l-.04.11Z"/>
            <path class="cls-2" d="M9.09,7.06c-.33-.13-.66-.29-.98-.44l.05-.11c.32.15.64.3.97.43l-.04.11Z"/>
            <path class="cls-3" d="M9.13,6.95c-.33-.13-.65-.28-.97-.43l.05-.11c.32.15.64.3.97.43l-.04.11Z"/>
            <path class="cls-2" d="M9.17,6.84c-.32-.13-.64-.28-.97-.43l.05-.11c.32.15.64.3.96.43l-.04.11Z"/>
            <path class="cls-3" d="M9.21,6.73c-.32-.13-.64-.28-.96-.43l.05-.11c.32.15.64.3.95.43l-.04.11Z"/>
            <path class="cls-2" d="M9.26,6.62c-.31-.12-.63-.27-.95-.43l.05-.11c.32.15.64.3.95.42l-.04.11Z"/>
          </g>
          <g>
            <path class="cls-2" d="M7.91,7.04c-.32-.15-.64-.3-.95-.42l.04-.11c.32.12.63.27.95.42l-.05.11Z"/>
            <path class="cls-3" d="M7.96,6.94c-.32-.15-.64-.3-.95-.42l.04-.11c.32.13.64.27.96.42l-.05.11Z"/>
            <path class="cls-2" d="M8.01,6.83c-.32-.15-.64-.3-.96-.42l.04-.11c.33.13.65.28.97.43l-.05.11Z"/>
            <path class="cls-3" d="M8.06,6.73c-.32-.15-.64-.3-.97-.43l.04-.11c.33.13.65.28.98.43l-.05.11Z"/>
            <path class="cls-2" d="M8.1,6.62c-.32-.15-.65-.3-.98-.43l.04-.11c.33.13.66.28.98.43l-.05.11Z"/>
            <path class="cls-3" d="M8.15,6.51c-.32-.15-.65-.3-.98-.43l.04-.11c.34.13.67.28.99.44l-.05.11Z"/>
            <path class="cls-2" d="M8.2,6.41c-.32-.15-.65-.3-.99-.44l.04-.11c.34.13.67.29,1,.44l-.05.11Z"/>
            <path class="cls-3" d="M8.25,6.3c-.32-.15-.65-.3-1-.44l.04-.11c.35.14.68.29,1,.44l-.05.11Z"/>
            <path class="cls-2" d="M8.3,6.2c-.32-.15-.66-.31-1-.44l.04-.11c.35.14.69.29,1.01.45l-.05.11Z"/>
          </g>
          <g>
            <path class="cls-2" d="M6.96,6.62c-.31-.12-.62-.22-.92-.27l.02-.12c.31.05.63.15.94.28l-.04.11Z"/>
            <path class="cls-3" d="M7,6.52c-.32-.12-.63-.23-.94-.28l.02-.12c.32.05.65.16.97.28l-.04.11Z"/>
            <path class="cls-2" d="M7.04,6.41c-.32-.13-.64-.23-.97-.28l.02-.12c.33.06.67.16.99.29l-.04.11Z"/>
            <path class="cls-3" d="M7.09,6.3c-.33-.13-.66-.23-.99-.29l.02-.12c.35.06.68.17,1.01.3l-.04.11Z"/>
            <path class="cls-2" d="M7.13,6.19c-.33-.13-.67-.24-1.01-.3l.02-.12c.36.06.7.17,1.04.3l-.04.11Z"/>
            <path class="cls-3" d="M7.17,6.08c-.33-.13-.68-.24-1.04-.3l.02-.12c.37.06.72.18,1.06.31l-.04.11Z"/>
            <path class="cls-2" d="M7.21,5.97c-.34-.13-.69-.25-1.06-.31l.02-.12c.38.06.74.18,1.08.32l-.04.11Z"/>
            <path class="cls-3" d="M7.26,5.86c-.34-.13-.7-.25-1.08-.32l.02-.12c.39.07.76.19,1.11.32l-.04.11Z"/>
            <path class="cls-2" d="M7.3,5.76c-.35-.14-.71-.26-1.11-.32l.02-.12c.41.07.78.19,1.13.33l-.04.11Z"/>
          </g>
          <g>
            <path class="cls-2" d="M6.04,6.35c-.07-.01-.15-.02-.22-.03h-.11s-.08,0-.12,0c-.17,0-.34,0-.5,0v-.12c.16,0,.33,0,.5,0,.04,0,.09,0,.13,0h.11c.08.01.15.02.23.04l-.02.12Z"/>
            <path class="cls-3" d="M6.06,6.24c-.08-.01-.15-.02-.23-.03h-.11s-.08,0-.13,0c-.17,0-.34,0-.51,0v-.12c.16,0,.34,0,.51,0,.09,0,.17,0,.25,0,.08,0,.16.02.24.03l-.02.12Z"/>
            <path class="cls-2" d="M6.08,6.12c-.08-.01-.16-.02-.24-.03-.08,0-.16,0-.25,0-.17,0-.35,0-.52,0v-.12c.17,0,.34,0,.52,0,.09,0,.17,0,.26,0,.08,0,.17.02.25.03l-.02.12Z"/>
            <path class="cls-3" d="M6.1,6.01c-.08-.01-.17-.02-.25-.03-.08,0-.17,0-.26,0-.18,0-.35,0-.52,0v-.12c.17,0,.35,0,.53,0,.18,0,.35.01.52.04l-.02.12Z"/>
            <path class="cls-2" d="M6.12,5.89c-.17-.03-.35-.04-.52-.04-.18,0-.36,0-.53,0v-.12c.17,0,.35,0,.53,0,.18,0,.36.01.54.05l-.02.12Z"/>
            <path class="cls-3" d="M6.14,5.78c-.18-.03-.36-.05-.54-.05-.18,0-.36,0-.54,0v-.12c.18,0,.36,0,.54,0,.09,0,.18,0,.28.01.09,0,.19.02.28.04l-.02.12Z"/>
            <path class="cls-2" d="M6.15,5.66c-.09-.02-.19-.03-.28-.04-.1,0-.19-.01-.28-.01-.18,0-.36,0-.55,0v-.12c.18,0,.37,0,.55,0,.09,0,.19,0,.29.01.1,0,.19.02.29.04l-.02.12Z"/>
            <path class="cls-3" d="M6.17,5.55c-.1-.02-.19-.03-.29-.04-.1,0-.2-.01-.29-.01-.18,0-.37,0-.55,0v-.12c.19,0,.37,0,.55,0,.05,0,.09,0,.14,0h.15c.1.02.2.03.3.05l-.02.12Z"/>
            <path class="cls-2" d="M6.19,5.43c-.1-.02-.2-.03-.3-.04h-.15c-.05-.01-.09-.01-.14-.01-.18,0-.37,0-.56,0v-.12c.19,0,.38,0,.56,0,.05,0,.09,0,.14,0h.16c.1.02.21.03.31.05l-.02.12Z"/>
          </g>
          <g>
            <path class="cls-2" d="M5.08,6.32c-.08,0-.16.01-.24.02-.07.01-.15.02-.21.03-.13.03-.24.07-.3.11l-.07-.1c.08-.06.2-.1.34-.13.07-.02.15-.02.22-.03.08,0,.16-.02.24-.02v.12Z"/>
            <path class="cls-3" d="M5.08,6.2c-.08,0-.16.01-.24.02-.08.01-.16.02-.22.03-.14.03-.26.07-.34.13l-.07-.1c.1-.07.23-.12.38-.15.07-.02.16-.03.24-.04.08,0,.16-.02.25-.02v.12Z"/>
            <path class="cls-2" d="M5.07,6.09c-.09,0-.17.01-.25.02-.08.01-.16.02-.24.04-.15.03-.29.08-.38.15l-.07-.1c.12-.08.27-.13.43-.17.16-.03.33-.05.5-.06v.12Z"/>
            <path class="cls-3" d="M5.07,5.97c-.17,0-.34.02-.5.06-.16.03-.31.08-.43.17l-.07-.1c.14-.1.3-.15.47-.19.17-.04.35-.05.52-.06v.12Z"/>
            <path class="cls-2" d="M5.06,5.85c-.18,0-.35.02-.52.06-.17.03-.34.09-.47.19l-.07-.1c.16-.11.34-.17.52-.21.18-.04.36-.05.54-.06v.12Z"/>
            <path class="cls-3" d="M5.06,5.74c-.18,0-.36.02-.54.06-.18.04-.36.09-.52.21l-.07-.1c.18-.12.37-.19.56-.22.19-.04.38-.05.56-.06v.12Z"/>
            <path class="cls-2" d="M5.05,5.62c-.18,0-.37.02-.56.06-.19.04-.38.1-.56.22l-.07-.1c.2-.14.41-.2.6-.24.2-.04.39-.06.58-.07v.12Z"/>
            <path class="cls-3" d="M5.04,5.5c-.19,0-.38.02-.58.07-.2.04-.41.11-.6.24l-.07-.1c.21-.15.44-.22.65-.26.11-.02.2-.03.3-.05.1,0,.2-.02.29-.02v.12Z"/>
            <path class="cls-2" d="M5.04,5.39c-.09,0-.19.01-.29.02-.1.01-.2.02-.3.05-.21.04-.43.11-.65.26l-.07-.1c.23-.16.48-.24.69-.28.11-.03.21-.03.32-.05.1,0,.2-.02.3-.02v.12Z"/>
          </g>
          <g>
            <path class="cls-2" d="M4.34,6.48c-.06.04-.09.09-.13.18-.04.09-.06.24-.07.37h-.12c.01-.15.04-.3.08-.41.04-.11.1-.18.17-.24l.07.1Z"/>
            <path class="cls-3" d="M4.27,6.38c-.08.06-.13.12-.17.24-.04.11-.07.26-.08.4h-.12c.01-.16.04-.32.09-.44.05-.13.12-.22.21-.29l.07.1Z"/>
            <path class="cls-2" d="M4.2,6.29c-.1.07-.16.16-.21.29-.05.12-.07.29-.09.44h-.12c.01-.17.04-.34.1-.48.06-.14.14-.26.26-.34l.07.1Z"/>
            <path class="cls-3" d="M4.13,6.19c-.12.08-.2.2-.26.34-.06.14-.08.31-.1.47h-.12c.02-.18.04-.36.1-.51.06-.16.16-.3.3-.39l.07.1Z"/>
            <path class="cls-2" d="M4.07,6.1c-.14.1-.24.24-.3.39-.06.16-.09.33-.1.51h-.12c.02-.19.04-.37.11-.55.07-.17.18-.34.34-.45l.07.1Z"/>
            <path class="cls-3" d="M4,6c-.16.11-.27.27-.34.45-.07.18-.09.36-.11.54h-.12c.02-.2.04-.39.12-.58.07-.19.2-.38.38-.5l.07.1Z"/>
            <path class="cls-2" d="M3.93,5.91c-.18.12-.31.31-.38.5-.08.19-.1.38-.12.57h-.12c0-.06,0-.11.02-.16,0-.05.01-.1.02-.15l.03-.15.05-.15c.08-.21.22-.42.42-.55l.07.1Z"/>
            <path class="cls-3" d="M3.86,5.81c-.2.14-.34.35-.42.55l-.05.15-.03.15c-.01.05-.02.1-.02.15,0,.05-.01.1-.02.15h-.12c0-.07.01-.12.02-.17,0-.05.01-.1.03-.16.01-.05.02-.11.04-.16l.06-.17c.02-.06.05-.11.08-.17.03-.06.07-.11.1-.16.04-.05.09-.1.13-.15.05-.05.1-.09.15-.13l.07.1Z"/>
            <path class="cls-2" d="M3.8,5.72c-.05.04-.11.08-.15.13-.04.05-.09.1-.13.15-.04.05-.08.11-.1.16-.03.06-.06.11-.08.17l-.06.17c-.01.05-.02.11-.04.16-.01.05-.02.1-.03.16,0,.05-.02.1-.02.16h-.12c0-.07.01-.12.02-.18,0-.05.01-.11.03-.16.01-.06.02-.11.04-.17l.06-.18c.02-.06.05-.12.08-.18.03-.06.07-.12.11-.18.04-.06.09-.11.14-.16.05-.05.11-.09.17-.14l.07.1Z"/>
          </g>
          <g>
            <path class="cls-2" d="M4.13,7.03c0,.12,0,.22.03.28.03.06.07.12.15.17l-.07.1c-.1-.07-.16-.14-.2-.22-.04-.09-.05-.2-.04-.34h.12Z"/>
            <path class="cls-3" d="M4.02,7.02c-.01.13,0,.25.04.34.04.09.1.16.2.22l-.07.1c-.11-.08-.19-.17-.24-.27-.05-.11-.06-.24-.05-.39h.12Z"/>
            <path class="cls-2" d="M3.9,7.01c-.01.15,0,.28.05.39.05.11.13.2.24.27l-.07.1c-.13-.08-.22-.19-.28-.33-.06-.13-.07-.28-.06-.44h.12Z"/>
            <path class="cls-3" d="M3.78,7.01c-.01.16,0,.31.06.44.06.13.15.24.28.33l-.07.1c-.14-.09-.26-.22-.32-.38-.07-.15-.08-.33-.07-.5h.12Z"/>
            <path class="cls-2" d="M3.67,7c-.01.17,0,.34.07.5.06.15.18.28.32.38l-.07.1c-.16-.1-.29-.25-.36-.43-.08-.18-.09-.37-.08-.55h.12Z"/>
            <path class="cls-3" d="M3.55,6.99c-.01.18,0,.38.08.55.07.18.21.32.36.43l-.07.1c-.17-.11-.32-.28-.4-.48-.09-.2-.1-.41-.09-.61h.12Z"/>
            <path class="cls-2" d="M3.43,6.98c-.01.2,0,.41.09.61.08.2.23.36.4.48l-.07.1c-.18-.12-.35-.31-.45-.53-.09-.22-.11-.45-.1-.66h.12Z"/>
            <path class="cls-3" d="M3.32,6.97c-.02.21,0,.44.1.66.09.22.26.41.45.53l-.07.1c-.2-.13-.39-.34-.49-.58-.1-.24-.12-.49-.11-.71h.12Z"/>
            <path class="cls-2" d="M3.2,6.97c-.02.22,0,.47.11.71.1.24.29.45.49.58l-.07.1c-.21-.14-.42-.36-.53-.63-.11-.26-.13-.53-.12-.77h.12Z"/>
          </g>
          <g>
            <path class="cls-2" d="M4.32,7.48c.08.06.2.11.33.14.06.02.14.03.21.05.08.01.15.02.23.03v.12c-.09,0-.17-.02-.25-.03-.07-.02-.15-.03-.22-.05-.14-.04-.27-.09-.37-.16l.07-.1Z"/>
            <path class="cls-3" d="M4.25,7.58c.1.07.22.12.37.16.07.02.15.03.22.05.08.01.16.02.24.03v.12c-.1,0-.18-.02-.26-.03-.08-.02-.16-.03-.23-.05-.15-.04-.29-.1-.4-.17l.07-.1Z"/>
            <path class="cls-2" d="M4.19,7.68c.11.08.25.13.4.17.07.02.16.04.23.05.08.01.16.03.25.03v.12c-.1,0-.18-.02-.27-.04-.08-.02-.17-.03-.24-.06-.16-.04-.31-.1-.44-.19l.07-.1Z"/>
            <path class="cls-3" d="M4.12,7.77c.13.09.28.15.44.19.08.03.16.04.24.06.08.01.17.03.25.04v.12c-.1,0-.19-.02-.27-.04-.09-.02-.17-.03-.26-.06-.17-.04-.33-.11-.47-.21l.07-.1Z"/>
            <path class="cls-2" d="M4.06,7.87c.14.1.3.16.47.21.08.03.17.04.26.06.09.01.17.03.26.04v.12c-.1,0-.19-.02-.28-.04-.09-.02-.18-.03-.27-.06-.18-.05-.35-.12-.5-.22l.07-.1Z"/>
            <path class="cls-3" d="M3.99,7.97c.16.11.33.17.5.22.09.03.18.04.27.06.09.01.18.03.27.04v.12c-.1,0-.2-.02-.29-.04-.09-.02-.18-.03-.28-.06-.18-.05-.37-.12-.54-.24l.07-.1Z"/>
            <path class="cls-2" d="M3.93,8.06c.17.12.36.19.54.24.09.03.18.04.28.06.09.01.18.03.28.04v.12c-.11,0-.2-.03-.3-.04-.1-.02-.19-.04-.29-.07-.19-.05-.39-.13-.57-.25l.07-.1Z"/>
            <path class="cls-3" d="M3.86,8.16c.18.12.38.2.57.25.1.03.19.04.29.07.09.01.19.03.28.04v.12c-.11,0-.21-.03-.31-.04-.1-.02-.2-.04-.3-.07-.2-.05-.41-.13-.61-.27l.07-.1Z"/>
            <path class="cls-2" d="M3.8,8.26c.2.13.41.22.61.27.1.03.2.05.3.07.1.01.2.03.29.04v.12c-.11-.01-.21-.03-.31-.04-.1-.02-.2-.04-.31-.07-.21-.06-.43-.14-.64-.29l.07-.1Z"/>
          </g>
          <g>
            <path class="cls-2" d="M5.09,7.71c.08,0,.16.02.24.02h.12s.04,0,.06,0h.05c.14,0,.28-.02.41-.05l.03.11c-.15.03-.29.05-.44.05h-.06s-.04,0-.06,0h-.12c-.08,0-.16-.02-.25-.02v-.12Z"/>
            <path class="cls-3" d="M5.08,7.82c.08,0,.16.02.25.02h.12s.04,0,.06,0h.06c.15,0,.29-.02.44-.06l.03.11c-.15.04-.31.06-.47.06-.07,0-.17,0-.25,0-.09,0-.17-.01-.25-.02v-.12Z"/>
            <path class="cls-2" d="M5.07,7.94c.08,0,.17.02.25.02.08,0,.17.01.25,0,.16,0,.31-.02.47-.06l.03.11c-.16.04-.33.06-.49.06-.17,0-.34,0-.51-.03v-.12Z"/>
            <path class="cls-3" d="M5.06,8.06c.17.02.35.03.51.03.16,0,.33-.02.49-.06l.03.11c-.34.08-.69.07-1.04.04v-.12Z"/>
            <path class="cls-2" d="M5.04,8.17c.35.03.71.05,1.04-.04l.03.11c-.18.04-.36.06-.54.07-.18,0-.36-.01-.54-.03v-.12Z"/>
            <path class="cls-3" d="M5.03,8.29c.18.02.36.03.54.03.18,0,.37-.02.54-.07l.03.11c-.19.04-.38.07-.57.07-.19,0-.37-.01-.55-.03v-.12Z"/>
            <path class="cls-2" d="M5.02,8.4c.19.02.36.03.55.03.19,0,.38-.02.57-.07l.03.11c-.19.05-.39.07-.59.07-.1,0-.19,0-.29,0-.09,0-.19-.02-.28-.02v-.12Z"/>
            <path class="cls-3" d="M5.01,8.52c.09,0,.19.02.28.02.1,0,.18.01.29,0,.2,0,.4-.03.59-.07l.03.11c-.2.05-.41.07-.62.08h-.08s-.07,0-.07,0h-.14c-.09,0-.19-.02-.29-.03v-.12Z"/>
            <path class="cls-2" d="M4.99,8.64c.1,0,.19.02.29.02h.14s.07,0,.07,0h.08c.21,0,.42-.03.62-.08l.03.11c-.21.05-.43.08-.65.08h-.08s-.07,0-.07,0h-.15c-.1,0-.2-.02-.29-.03v-.12Z"/>
          </g>
          <g>
            <path class="cls-2" d="M5.98,7.68c.27-.06.54-.19.8-.36l.06.1c-.26.18-.55.31-.84.38l-.03-.11Z"/>
            <path class="cls-3" d="M6.01,7.79c.29-.07.57-.2.84-.38l.06.1c-.27.18-.57.32-.88.39l-.03-.11Z"/>
            <path class="cls-2" d="M6.03,7.91c.31-.07.6-.21.88-.39l.06.1c-.28.19-.59.33-.91.41l-.03-.11Z"/>
            <path class="cls-3" d="M6.06,8.02c.32-.08.63-.22.91-.41l.06.1c-.29.19-.61.35-.95.43l-.03-.11Z"/>
            <path class="cls-2" d="M6.09,8.14c.34-.08.66-.23.95-.43l.06.1c-.3.2-.63.36-.99.44l-.03-.11Z"/>
            <path class="cls-3" d="M6.12,8.25c.36-.08.69-.24.99-.44l.06.1c-.31.21-.66.37-1.03.46l-.03-.11Z"/>
            <path class="cls-2" d="M6.14,8.36c.37-.09.72-.25,1.03-.46l.06.1c-.32.21-.68.39-1.07.48l-.03-.11Z"/>
            <path class="cls-3" d="M6.17,8.48c.39-.09.75-.26,1.07-.48l.06.1c-.33.22-.7.4-1.1.49l-.03-.11Z"/>
            <path class="cls-2" d="M6.2,8.59c.4-.1.78-.27,1.1-.49l.06.1c-.34.22-.72.41-1.14.51l-.03-.11Z"/>
          </g>
          <g>
            <path class="cls-2" d="M6.78,7.32c.26-.17.5-.38.72-.62l.08.08c-.23.24-.47.46-.74.64l-.06-.1Z"/>
            <path class="cls-3" d="M6.85,7.42c.26-.18.51-.39.74-.64l.08.08c-.23.25-.49.47-.76.65l-.06-.1Z"/>
            <path class="cls-2" d="M6.91,7.51c.27-.18.53-.41.76-.65l.08.08c-.24.25-.5.48-.78.67l-.06-.1Z"/>
            <path class="cls-3" d="M6.98,7.61c.28-.19.54-.42.78-.67l.08.08c-.24.26-.51.49-.8.69l-.06-.1Z"/>
            <path class="cls-2" d="M7.04,7.71c.29-.19.56-.43.8-.69l.08.08c-.25.26-.52.5-.82.7l-.06-.1Z"/>
            <path class="cls-3" d="M7.11,7.81c.3-.2.57-.44.82-.7l.08.08c-.25.27-.53.51-.84.72l-.06-.1Z"/>
            <path class="cls-2" d="M7.17,7.9c.31-.21.59-.45.84-.72l.08.08c-.26.27-.54.53-.86.74l-.06-.1Z"/>
            <path class="cls-3" d="M7.23,8c.32-.21.6-.47.86-.74l.08.08c-.26.28-.55.54-.88.76l-.06-.1Z"/>
            <path class="cls-2" d="M7.3,8.1c.33-.22.62-.48.88-.76l.08.08c-.26.28-.56.55-.9.77l-.06-.1Z"/>
          </g>
          <g>
            <path class="cls-2" d="M7.5,6.7c.22-.24.43-.5.62-.77l.1.07c-.2.28-.41.54-.63.79l-.08-.08Z"/>
            <path class="cls-3" d="M7.59,6.78c.23-.24.44-.51.63-.79l.1.07c-.2.28-.41.55-.64.8l-.08-.08Z"/>
            <path class="cls-2" d="M7.67,6.86c.23-.25.45-.52.64-.8l.1.07c-.2.29-.42.56-.65.81l-.08-.08Z"/>
            <path class="cls-3" d="M7.76,6.94c.24-.25.45-.53.65-.81l.1.07c-.2.29-.42.57-.67.83l-.08-.08Z"/>
            <path class="cls-2" d="M7.84,7.02c.24-.26.46-.54.67-.83l.1.07c-.21.29-.43.58-.68.84l-.08-.08Z"/>
            <path class="cls-3" d="M7.93,7.1c.25-.26.47-.55.68-.84l.1.07c-.21.3-.44.58-.69.85l-.08-.08Z"/>
            <path class="cls-2" d="M8.01,7.18c.25-.27.48-.55.69-.85l.1.07c-.21.3-.44.59-.7.87l-.08-.08Z"/>
            <path class="cls-3" d="M8.09,7.26c.26-.27.49-.56.7-.87l.1.07c-.21.31-.45.6-.71.88l-.08-.08Z"/>
            <path class="cls-2" d="M8.18,7.34c.26-.28.49-.57.71-.88l.1.07c-.22.31-.45.61-.72.89l-.08-.08Z"/>
          </g>
          <g>
            <path class="cls-2" d="M8.12,5.93c.19-.27.37-.57.53-.86l.1.06c-.17.3-.34.6-.54.87l-.1-.07Z"/>
            <path class="cls-3" d="M8.22,5.99c.2-.28.37-.57.54-.87l.1.06c-.17.3-.35.6-.55.88l-.1-.07Z"/>
            <path class="cls-2" d="M8.31,6.06c.2-.28.38-.58.55-.88l.1.06c-.17.31-.35.61-.55.89l-.1-.07Z"/>
            <path class="cls-3" d="M8.41,6.13c.2-.29.38-.59.55-.89l.1.06c-.17.31-.35.62-.56.91l-.1-.07Z"/>
            <path class="cls-2" d="M8.51,6.2c.2-.29.39-.59.56-.91l.1.06c-.17.31-.36.62-.57.92l-.1-.07Z"/>
            <path class="cls-3" d="M8.6,6.26c.21-.29.39-.6.57-.92l.1.06c-.18.32-.36.63-.57.93l-.1-.07Z"/>
            <path class="cls-2" d="M8.7,6.33c.21-.3.4-.61.57-.93l.1.06c-.18.32-.37.64-.58.94l-.1-.07Z"/>
            <path class="cls-3" d="M8.79,6.4c.21-.3.4-.62.58-.94l.1.06c-.18.32-.37.64-.58.95l-.1-.07Z"/>
            <path class="cls-2" d="M8.89,6.46c.22-.31.41-.62.58-.95l.1.06c-.18.33-.37.65-.59.96l-.1-.07Z"/>
          </g>
          <g>
            <path class="cls-2" d="M8.66,5.07c.16-.3.32-.61.46-.92l.11.05c-.15.32-.3.63-.47.93l-.1-.06Z"/>
            <path class="cls-3" d="M8.76,5.12c.17-.3.32-.61.47-.93l.11.05c-.15.32-.3.64-.47.94l-.1-.06Z"/>
            <path class="cls-2" d="M8.86,5.18c.17-.3.32-.62.47-.94l.11.05c-.15.32-.3.64-.47.95l-.1-.06Z"/>
            <path class="cls-3" d="M8.96,5.23c.17-.31.32-.63.47-.95l.11.05c-.15.32-.31.64-.48.95l-.1-.06Z"/>
            <path class="cls-2" d="M9.06,5.29c.17-.31.33-.63.48-.95l.11.05c-.15.32-.31.65-.48.96l-.1-.06Z"/>
            <path class="cls-3" d="M9.17,5.35c.17-.31.33-.64.48-.96l.11.05c-.15.33-.31.65-.48.97l-.1-.06Z"/>
            <path class="cls-2" d="M9.27,5.4c.18-.32.33-.64.48-.97l.11.05c-.15.33-.31.65-.49.97l-.1-.06Z"/>
            <path class="cls-3" d="M9.37,5.46c.18-.32.34-.65.49-.97l.11.05c-.15.33-.31.66-.49.98l-.1-.06Z"/>
            <path class="cls-2" d="M9.47,5.51c.18-.32.34-.65.49-.98l.11.05c-.15.33-.31.66-.49.99l-.1-.06Z"/>
          </g>
          <g>
            <path class="cls-2" d="M9.12,4.14c.15-.32.29-.64.42-.96l.11.04c-.14.32-.27.65-.42.97l-.11-.05Z"/>
            <path class="cls-3" d="M9.22,4.19c.15-.32.29-.64.42-.97l.11.04c-.14.33-.28.65-.42.97l-.11-.05Z"/>
            <path class="cls-2" d="M9.33,4.24c.15-.32.29-.64.42-.97l.11.04c-.14.33-.28.65-.43.97l-.11-.05Z"/>
            <path class="cls-3" d="M9.44,4.29c.15-.32.29-.65.43-.97l.11.04c-.14.33-.28.66-.43.98l-.11-.05Z"/>
            <path class="cls-2" d="M9.54,4.34c.15-.32.29-.65.43-.98l.11.04c-.14.33-.28.66-.43.98l-.11-.05Z"/>
            <path class="cls-3" d="M9.65,4.39c.15-.32.29-.65.43-.98l.11.04c-.14.33-.28.66-.43.99l-.11-.05Z"/>
            <path class="cls-2" d="M9.75,4.43c.15-.33.29-.66.43-.99l.11.04c-.14.33-.28.66-.43.99l-.11-.05Z"/>
            <path class="cls-3" d="M9.86,4.48c.15-.33.29-.66.43-.99l.11.04c-.14.33-.28.67-.44,1l-.11-.05Z"/>
            <path class="cls-2" d="M9.97,4.53c.15-.33.3-.66.44-1l.11.04c-.14.33-.28.67-.44,1l-.11-.05Z"/>
          </g>
          <g>
            <path class="cls-2" d="M9.54,3.18c.14-.32.26-.65.39-.98l.11.04c-.13.33-.26.66-.39.98l-.11-.04Z"/>
            <path class="cls-3" d="M9.65,3.22c.14-.33.27-.65.39-.98l.11.04c-.13.33-.26.66-.39.99l-.11-.04Z"/>
            <path class="cls-2" d="M9.75,3.27c.14-.33.27-.66.39-.99l.11.04c-.13.33-.26.66-.39.99l-.11-.04Z"/>
            <path class="cls-3" d="M9.86,3.31c.14-.33.27-.66.39-.99l.11.04c-.13.33-.26.66-.4.99l-.11-.04Z"/>
            <path class="cls-2" d="M9.97,3.36c.14-.33.27-.66.4-.99l.11.04c-.13.33-.26.67-.4,1l-.11-.04Z"/>
            <path class="cls-3" d="M10.08,3.4c.14-.33.27-.66.4-1l.11.04c-.13.33-.26.67-.4,1l-.11-.04Z"/>
            <path class="cls-2" d="M10.19,3.45c.14-.33.27-.66.4-1l.11.04c-.13.34-.26.67-.4,1l-.11-.04Z"/>
            <path class="cls-3" d="M10.29,3.49c.14-.33.27-.67.4-1l.11.04c-.13.34-.26.67-.4,1l-.11-.04Z"/>
            <path class="cls-2" d="M10.4,3.54c.14-.33.27-.67.4-1l.11.04c-.13.34-.26.67-.4,1.01l-.11-.04Z"/>
          </g>
          <g>
            <path class="cls-2" d="M9.93,2.2c.13-.33.25-.66.36-.99l.11.04c-.11.33-.24.66-.36.99l-.11-.04Z"/>
            <path class="cls-3" d="M10.04,2.24c.13-.33.25-.66.36-.99l.11.04c-.12.33-.24.66-.37,1l-.11-.04Z"/>
            <path class="cls-2" d="M10.15,2.28c.13-.33.25-.66.37-1l.11.04c-.12.33-.24.67-.37,1l-.11-.04Z"/>
            <path class="cls-3" d="M10.26,2.32c.13-.33.25-.67.37-1l.11.04c-.12.34-.24.67-.37,1l-.11-.04Z"/>
            <path class="cls-2" d="M10.37,2.37c.13-.33.25-.67.37-1l.11.04c-.12.34-.24.67-.37,1.01l-.11-.04Z"/>
            <path class="cls-3" d="M10.47,2.41c.13-.33.25-.67.37-1.01l.11.04c-.12.34-.24.67-.37,1.01l-.11-.04Z"/>
            <path class="cls-2" d="M10.58,2.45c.13-.33.25-.67.37-1.01l.11.04c-.12.34-.24.68-.37,1.01l-.11-.04Z"/>
            <path class="cls-3" d="M10.69,2.49c.13-.34.25-.67.37-1.01l.11.04c-.12.35-.25.68-.37,1.02l-.11-.04Z"/>
            <path class="cls-2" d="M10.8,2.53c.13-.34.25-.67.37-1.02l.11.04c-.12.35-.25.68-.38,1.02l-.11-.04Z"/>
          </g>
        </g>
      </g>
    </g>
  </g>
</svg>